<svg width="58" height="65" viewBox="0 0 58 65" fill="none" xmlns="http://www.w3.org/2000/svg">
<path d="M53.7797 17.1691C53.7933 17.0696 53.8419 16.976 53.9118 16.9043L56.7706 14.1177C57.0457 13.8495 56.8939 13.3823 56.5137 13.3271L52.563 12.753C52.412 12.7311 52.2814 12.6362 52.2139 12.4994L50.4471 8.91941C50.2771 8.57488 49.7858 8.57488 49.6158 8.91941L47.849 12.4994C47.7814 12.6362 47.651 12.731 47.5001 12.753H47.4999L46.164 12.9471L43.878 13.348C43.4978 13.403 43.3465 13.8708 43.6216 14.1384L46.404 16.8667C46.5141 16.9742 46.5641 17.1268 46.5379 17.2781L45.8863 20.7484C45.8225 21.1273 46.2189 21.4162 46.5591 21.2374L49.8209 19.6834C49.956 19.6121 50.1173 19.6121 50.2524 19.6834L53.5518 21.4821C53.892 21.6609 54.2896 21.3721 54.2246 20.9931L53.9933 18.5642L53.7792 17.315C53.775 17.2664 53.769 17.2172 53.7797 17.1691Z" fill="#FFD064"/>
<path d="M53.7804 21.7384L50.2475 19.8801C50.1125 19.8088 49.9511 19.8088 49.8161 19.8801L46.2819 21.7384C45.9417 21.9173 45.5453 21.6284 45.6091 21.2495L46.2844 17.3151C46.3107 17.1638 46.2606 17.0112 46.1506 16.9036L43.293 14.1173C43.0179 13.8497 43.1692 13.382 43.5494 13.327L46.1643 12.9468C47.1486 16.1996 50.17 18.5682 53.7442 18.5682C53.828 18.5682 53.9105 18.5669 53.993 18.5644L54.4533 21.2495C54.5183 21.6283 54.1206 21.9173 53.7804 21.7384Z" fill="#FFC250"/>
<path d="M11.696 17.1691C11.7097 17.0696 11.7583 16.976 11.8282 16.9043L14.6869 14.1177C14.9621 13.8495 14.8102 13.3823 14.4301 13.3271L10.4793 12.753C10.3284 12.7311 10.1978 12.6362 10.1303 12.4994L8.36357 8.91941C8.19362 8.57488 7.70226 8.57488 7.53231 8.91941L5.76547 12.4994C5.69794 12.6362 5.5675 12.731 5.41656 12.753H5.41643L4.08055 12.9471L1.79447 13.348C1.41429 13.403 1.26297 13.8708 1.5381 14.1384L4.32054 16.8667C4.43059 16.9742 4.48061 17.1268 4.45435 17.2781L3.80279 20.7484C3.73901 21.1273 4.13545 21.4162 4.47561 21.2374L7.7374 19.6834C7.87247 19.6121 8.03379 19.6121 8.16886 19.6834L11.4683 21.4821C11.8084 21.6609 12.2061 21.3721 12.1411 20.9931L11.9097 18.5642L11.6956 17.315C11.6914 17.2664 11.6855 17.2172 11.696 17.1691Z" fill="#FFD064"/>
<path d="M11.6965 21.7384L8.16354 19.8801C8.02847 19.8088 7.86715 19.8088 7.73208 19.8801L4.19791 21.7384C3.85775 21.9173 3.46131 21.6284 3.52509 21.2495L4.20041 17.3151C4.22667 17.1638 4.17665 17.0112 4.0666 16.9036L1.209 14.1173C0.933868 13.8497 1.08519 13.382 1.46537 13.327L4.08036 12.9468C5.06457 16.1996 8.086 18.5682 11.6602 18.5682C11.744 18.5682 11.8265 18.5669 11.9091 18.5644L12.3693 21.2495C12.4343 21.6283 12.0366 21.9173 11.6965 21.7384Z" fill="#FFC250"/>
<path d="M31.9307 34.883L32.6264 31.1537C32.9804 29.2559 32.2606 27.3548 30.8248 26.1674C30.5178 25.9135 30.0294 26.0023 29.6603 25.8207C28.7958 25.3951 28.3695 26.0365 28.0611 26.953L24.5708 37.4823C23.6149 40.323 22.6679 43.571 20.0137 44.9416V58.2853C20.0137 60.4711 20.4483 63.6098 25.5164 63.6098L37.9681 63.6146L43.5256 61.8315V42.8934L38.2126 40.6988H36.6897C33.6042 40.6988 31.3622 37.9304 31.9307 34.883Z" fill="#F2D1A5"/>
<path d="M21.3855 57.8738V46.2227C21.3855 45.4016 21.7511 44.6216 22.3881 44.1034C24.479 42.4028 26.0637 39.2849 26.8774 36.8665L30.2025 26.9852C30.3201 26.6357 30.5445 26.3569 30.8245 26.1685C30.5174 25.9145 30.1782 25.6924 29.8092 25.5106C28.9446 25.0851 27.9048 25.5202 27.5964 26.4366L24.2713 36.3179C23.3154 39.1586 21.2964 42.1132 18.6422 43.4838L17.2705 52.1567L18.6422 59.6569C18.6422 61.8427 20.8906 63.61 25.9586 63.61C25.9586 63.61 21.3142 62.7668 21.3855 57.8738Z" fill="#F2BB88"/>
<path d="M44.3895 62.9287H37.9681C36.5191 62.9287 36.1675 62.4399 36.1675 60.991C36.1675 59.5421 36.5191 58.3675 37.9681 58.3675H38.1703L41.4767 56.9958L44.5267 58.3675C45.4729 58.3675 46.24 59.1346 46.24 60.0808V60.9411C46.24 61.8873 45.3358 62.9287 44.3895 62.9287Z" fill="#F2D1A5"/>
<path d="M40.7115 60.8712C39.303 60.8712 38.1571 59.7603 38.094 58.3674H37.9682C36.5193 58.3674 35.3447 59.542 35.3447 60.9909C35.3447 62.4399 36.5193 63.6144 37.9682 63.6144H44.5268C45.473 63.6144 46.2401 62.8473 46.2401 61.9011V60.8712H40.7115Z" fill="#F2BB88"/>
<path d="M44.6275 57.5445L38.2894 57.6817C36.663 57.8189 36.3047 55.5861 36.3047 55.4227H36.1675C36.1675 53.7963 36.663 52.478 38.2892 52.478L41.3744 51.1063L45.5875 52.478C46.7704 52.478 47.7292 53.4368 47.7292 54.6196V55.6772C47.7292 56.8599 45.8103 57.6815 44.6275 57.5445Z" fill="#F2D1A5"/>
<path d="M41.0328 55.6243C39.4064 55.6243 38.088 54.3059 38.088 52.6795C38.088 52.6147 38.0935 52.5513 38.0977 52.4877C36.5612 52.587 35.3447 53.8612 35.3447 55.4228C35.3447 57.0492 36.6631 58.3676 38.2895 58.3676H45.5878C46.7706 58.3676 47.7295 57.4087 47.7295 56.2259V55.6244H41.0328V55.6243Z" fill="#F2BB88"/>
<path d="M46.367 51.655L38.2511 51.7921C36.6248 51.7921 36.1294 51.1595 36.1294 49.5332C36.1294 47.9068 36.6249 46.5884 38.2511 46.5884L42.2562 45.2168L45.7348 46.5884H47.4644C48.6472 46.5884 49.606 47.5473 49.606 48.7301V49.7877C49.6059 50.9705 47.5497 51.655 46.367 51.655Z" fill="#F2D1A5"/>
<path d="M40.9942 49.7347C39.3678 49.7347 38.0494 48.4164 38.0494 46.79C38.0494 46.7252 38.0551 46.6618 38.0591 46.5981C36.5226 46.6974 35.3062 47.9717 35.3062 49.5333C35.3062 51.1597 36.6245 52.478 38.2509 52.478H47.4641C48.647 52.478 49.6058 51.5192 49.6058 50.3364V49.7349H40.9942V49.7347Z" fill="#F2BB88"/>
<path d="M44.3532 45.9026H38.2894C36.663 45.9026 36.3047 43.6436 36.3047 43.6436C36.3047 42.0172 36.663 40.6989 38.2894 40.6989H45.5877C46.7705 40.6989 47.7293 41.6577 47.7293 42.8405V43.8981C47.7293 45.0809 45.536 45.9026 44.3532 45.9026Z" fill="#F2D1A5"/>
<path d="M41.0328 43.8451C39.4064 43.8451 38.088 42.5267 38.088 40.9003C38.088 40.8356 38.0935 40.7722 38.0977 40.7085C36.5612 40.8078 35.3447 42.082 35.3447 43.6436C35.3447 45.27 36.6631 46.5884 38.2895 46.5884H45.5878C46.7706 46.5884 47.7295 45.6296 47.7295 44.4468V43.8452H41.0328V43.8451Z" fill="#F2BB88"/>
<path d="M15.6355 62.7668H13.9437C12.8074 62.7668 12.6989 60.8914 12.6989 59.7551L12.6289 43.6437C12.6289 42.5075 12.8074 40.699 13.9437 40.699H16.5845C17.7208 40.699 18.642 41.6202 18.642 42.7564V61.5573C18.6419 62.6934 16.7717 62.7668 15.6355 62.7668Z" fill="#F1F6F7"/>
<path d="M15.3154 60.8713C14.9365 60.8713 14.6295 60.5643 14.6295 60.1855V40.6987H13.9437C12.8074 40.6987 11.8862 41.6199 11.8862 42.7562V61.5571C11.8862 62.6934 12.8074 63.6146 13.9437 63.6146H16.5846C17.7209 63.6146 18.6421 62.6934 18.6421 61.5571V60.8713H15.3154Z" fill="#E1EBF0"/>
<path d="M34.8052 14.6536C34.8214 14.4847 34.8954 14.3252 35.0188 14.2042L39.4566 9.87844C39.8837 9.46212 39.6481 8.73678 39.0578 8.65099L32.9248 7.75981C32.6904 7.7258 32.4878 7.5786 32.383 7.36613L29.6402 1.80875C29.3762 1.27387 28.6136 1.27387 28.3496 1.80875L25.6068 7.36613C25.5025 7.57748 25.2975 7.72605 25.0653 7.75931L23.0817 8.0477L20.0133 9.09332C19.423 9.17961 19.1866 9.90495 19.6143 10.3201L23.8292 14.2825C23.9993 14.4489 24.0768 14.6865 24.0368 14.9203L22.6224 20.3752C22.5223 20.9629 23.1389 21.4119 23.6666 21.1343L28.6546 18.0337C28.8647 17.9224 29.1148 17.9224 29.3249 18.0337L34.2449 20.801C34.7726 21.0786 35.3904 20.6296 35.2891 20.0419L35.1453 16.7885L34.8119 14.8449C34.8025 14.781 34.7973 14.717 34.8052 14.6536Z" fill="#FFD064"/>
<path d="M34.8152 21.7085L29.3301 18.8247C29.12 18.7134 28.8699 18.7134 28.6598 18.8247L23.1747 21.7085C22.647 21.9862 22.0304 21.5372 22.1305 20.9494L23.1785 14.8416C23.2185 14.6077 23.141 14.3701 22.9709 14.2037L18.5338 9.87795C18.1061 9.46276 18.3424 8.73742 18.9327 8.65112L23.0822 8.04834C24.1177 13.077 28.5685 16.8588 33.9035 16.8588C34.3237 16.8588 34.7377 16.835 35.1454 16.7887L35.8595 20.9494C35.9608 21.5372 35.343 21.9862 34.8152 21.7085Z" fill="#FFC250"/>
<path d="M28.5829 62.6242H25.9716C22.0496 62.6242 19.6132 61.4712 19.6132 59.6152V44.0405C22.129 42.5677 24.0119 40.1106 25.2147 36.7274C25.3883 36.2393 25.1333 35.7031 24.6452 35.5295C24.1569 35.3555 23.6207 35.6109 23.4473 36.099C22.522 38.7015 21.2175 40.6075 19.4819 41.8851C19.1065 40.6628 17.9672 39.7715 16.6234 39.7715H13.9897C12.3411 39.7715 11 41.1127 11 42.7611V51.5817C11 52.0998 11.4198 52.5196 11.9379 52.5196C12.4561 52.5196 12.8759 52.0998 12.8759 51.5817V42.7611C12.8759 42.147 13.3755 41.6474 13.9897 41.6474H16.6234C17.2376 41.6474 17.7372 42.147 17.7372 42.7611V61.5104C17.7372 62.1245 17.2376 62.6242 16.6234 62.6242H13.9897C13.3755 62.6242 12.8759 62.1245 12.8759 61.5104V55.9242C12.8759 55.4061 12.4561 54.9863 11.9379 54.9863C11.4198 54.9863 11 55.4061 11 55.9242V61.5104C11 63.1589 12.3413 64.5 13.9897 64.5H16.6234C17.8155 64.5 18.8465 63.7985 19.3262 62.7869C20.4951 63.7328 22.5102 64.5 25.9715 64.5H28.5828C29.1009 64.5 29.5208 64.0802 29.5208 63.5621C29.5208 63.044 29.1009 62.6242 28.5829 62.6242Z" fill="#333333"/>
<path d="M48.3968 45.8056C48.5406 45.4679 48.6203 45.0966 48.6203 44.7069V42.5852C48.6203 41.0338 47.358 39.7714 45.8065 39.7714C44.6566 39.7713 37.5758 39.7717 36.673 39.7714C34.3072 39.8286 32.3729 37.508 32.8492 35.0814L33.5431 31.3624C34.0468 28.6618 32.6827 25.9307 30.2257 24.7212C29.0549 24.1088 27.1873 24.6789 26.716 26.1869L24.7695 31.9641C24.6042 32.455 24.868 32.9871 25.3589 33.1524C25.8498 33.3176 26.3819 33.0539 26.5473 32.563L28.4938 26.7854C28.577 26.5384 28.7612 26.43 28.8635 26.3873C28.9646 26.3453 29.1682 26.2915 29.3974 26.4043C31.1028 27.2439 32.0494 29.1414 31.6991 31.0185L31.0052 34.7374C30.4343 37.5395 32.1865 40.6603 35.0925 41.4306C34.6528 42.059 34.394 42.8226 34.394 43.646C34.394 44.8102 34.9107 45.8553 35.7261 46.5661C34.8886 47.2775 34.3556 48.3371 34.3556 49.5194C34.3556 50.7017 34.8884 51.7615 35.7261 52.4727C34.9107 53.1835 34.394 54.2286 34.394 55.3928C34.394 56.5183 34.8767 57.5328 35.6457 58.2414C34.8806 58.8938 34.394 59.8638 34.394 60.9458C34.394 61.5525 34.547 62.124 34.8162 62.6242H32.9253C32.4071 62.6242 31.9873 63.044 31.9873 63.5622C31.9873 64.0803 32.4071 64.5001 32.9253 64.5001H44.4887C45.948 64.5001 47.1354 63.3129 47.1354 61.8536V60.0381C47.1354 59.6512 47.0498 59.2844 46.8999 58.9527C47.9181 58.4514 48.6206 57.4033 48.6206 56.1937V54.5919C48.6206 54.1149 48.5114 53.663 48.3167 53.2598C49.5745 52.8745 50.4918 51.7027 50.4918 50.3204V48.7185C50.4916 47.3659 49.613 46.2155 48.3968 45.8056ZM46.7444 42.5852V44.7069C46.7444 45.2241 46.3237 45.6448 45.8065 45.6448H38.2684C37.1663 45.6448 36.2697 44.7481 36.2697 43.6461C36.2697 42.5441 37.1664 41.6474 38.2684 41.6474H45.8065C46.3237 41.6473 46.7444 42.068 46.7444 42.5852ZM45.5466 53.3941C46.207 53.3941 46.7444 53.9315 46.7444 54.5919V56.1937C46.7444 56.8541 46.207 57.3915 45.5466 57.3915H38.2684C37.1663 57.3915 36.2697 56.4948 36.2697 55.3928C36.2697 54.2908 37.1664 53.3942 38.2684 53.3942H45.5466V53.3941ZM45.2592 61.8535C45.2592 62.2783 44.9134 62.6241 44.4885 62.6241H37.9479C37.0226 62.6241 36.2696 61.8711 36.2696 60.9457C36.2696 60.0202 37.0226 59.2673 37.9479 59.2673C38.212 59.2658 44.1661 59.2684 44.4885 59.2673C44.9134 59.2673 45.2592 59.613 45.2592 60.038V61.8535ZM48.6157 50.3204C48.6157 50.9808 48.0783 51.5182 47.4179 51.5182H38.23C37.1279 51.5182 36.2313 50.6215 36.2313 49.5195C36.2313 48.4175 37.128 47.5208 38.23 47.5208H47.4179C48.0783 47.5208 48.6157 48.0582 48.6157 48.7186V50.3204Z" fill="#333333"/>
<path d="M22.2342 14.7959L21.206 20.7909C21.0077 21.9567 22.2477 23.2151 23.6109 22.5383L28.9948 19.7077L34.3786 22.5382C35.4365 23.1361 37.0086 22.2033 36.7836 20.791L35.7554 14.7959L40.1111 10.5502C40.9862 9.76254 40.6154 7.90728 39.1924 7.72307L33.1729 6.84841L30.4811 1.39358C29.9765 0.288307 28.1564 0.118977 27.5085 1.39358L24.8166 6.84816L18.7972 7.72282C17.5606 7.87064 16.8797 9.53918 17.8784 10.55L22.2342 14.7959ZM25.2 8.68803C25.7399 8.60949 26.2065 8.27046 26.448 7.78122L28.9949 2.62053L31.5419 7.78147C31.7836 8.27071 32.25 8.60962 32.7898 8.68803L38.4849 9.51554L34.3641 13.5324C33.9732 13.9132 33.7948 14.4619 33.8872 14.9996L34.8599 20.6717L29.7659 17.9936C29.2831 17.7398 28.7063 17.7401 28.2234 17.9937L23.1297 20.6717L24.1024 14.9998C24.1947 14.4618 24.0163 13.9132 23.6256 13.5326L19.5046 9.51554L25.2 8.68803Z" fill="#333333"/>
<path d="M57.78 13.3525C57.6139 12.8415 57.1804 12.4761 56.6487 12.399L52.9449 11.8607L51.2885 8.50436C50.8619 7.57004 49.3228 7.42635 48.775 8.50436L47.1185 11.8606L43.4147 12.399C42.3931 12.5294 41.7867 13.8955 42.6378 14.7895L45.3181 17.4019L44.6854 21.0907C44.4923 22.0628 45.6016 23.1173 46.7189 22.5683L50.0317 20.8264L53.3447 22.5684C54.1115 23.0647 55.5959 22.3286 55.378 21.0908L54.7453 17.4019L57.4257 14.7893C57.8103 14.4142 57.9462 13.8636 57.78 13.3525ZM53.2574 16.2326C52.9269 16.5547 52.7761 17.0184 52.8541 17.4732L53.3665 20.4606L50.6837 19.0502C50.4796 18.943 50.2557 18.8893 50.0317 18.8893C49.8077 18.8893 49.5837 18.9429 49.3794 19.0502L46.6966 20.4606L47.2091 17.4731C47.287 17.0184 47.1362 16.5547 46.8059 16.2328L44.6355 14.1171L47.6353 13.6813C48.0916 13.6149 48.4861 13.3284 48.6903 12.9147L50.0317 10.1968L51.3729 12.9142C51.5769 13.328 51.9713 13.6148 52.4283 13.6813L55.4277 14.1171L53.2574 16.2326Z" fill="#333333"/>
<path d="M11.9139 22.7306C12.5929 22.7535 13.4447 22.0342 13.294 21.0907L12.6613 17.4018L15.3417 14.7892C16.0542 14.1491 15.7934 12.5654 14.5647 12.3989L10.8608 11.8605L9.20441 8.50451C8.77771 7.56969 7.23923 7.42663 6.69085 8.50439L5.03444 11.8607L1.33069 12.3989C0.309081 12.5293 -0.297331 13.8954 0.553822 14.7894L3.23409 17.4018L2.60142 21.0906C2.40832 22.0628 3.51722 23.1173 4.63488 22.5682L7.9477 20.8263L11.2606 22.5682C11.4675 22.677 11.6912 22.7306 11.9139 22.7306ZM7.9477 18.889C7.72371 18.889 7.49961 18.9428 7.29551 19.05L4.61274 20.4604L5.12523 17.4729C5.20315 17.0182 5.05233 16.5544 4.72204 16.2325L2.55164 14.1169L5.55144 13.6811C6.00803 13.6146 6.40259 13.3278 6.60631 12.9145L7.94782 10.1966L9.28908 12.9146C9.49318 13.3282 9.88749 13.6147 10.3443 13.6811L13.3437 14.1169L11.1735 16.2324C10.8429 16.5544 10.6921 17.0182 10.7702 17.473L11.2825 20.4604L8.5995 19.0499C8.39541 18.9426 8.17155 18.889 7.9477 18.889Z" fill="#333333"/>
</svg>
