<svg width="62" height="63" viewBox="0 0 62 63" fill="none" xmlns="http://www.w3.org/2000/svg">
<path d="M33.58 19.5H21H3V40.29C4.02 38.6 5.38 37.14 7 36.01V23.5H17V33.64C18.41 33.84 19.75 34.26 21 34.85C24.55 36.54 27.28 39.67 28.42 43.5H33.58C34.5 40.43 36.43 37.8 39 36.01V26.99C36.43 25.2 34.5 22.57 33.58 19.5Z" fill="#F0D0B4"/>
<path d="M47 1.5C54.73 1.5 61 7.77 61 15.5C61 23.23 54.73 29.5 47 29.5C44.03 29.5 41.27 28.57 39 26.99C36.43 25.2 34.5 22.57 33.58 19.5C33.2 18.23 33 16.89 33 15.5C33 13.67 33.35 11.93 33.99 10.33C36.05 5.15 41.1 1.5 47 1.5Z" fill="#E6E9ED"/>
<path d="M47 33.5C54.73 33.5 61 39.77 61 47.5C61 55.23 54.73 61.5 47 61.5C39.27 61.5 33 55.23 33 47.5C33 46.11 33.2 44.77 33.58 43.5C34.5 40.43 36.43 37.8 39 36.01C41.27 34.43 44.03 33.5 47 33.5Z" fill="#E6E9ED"/>
<path d="M53.41 20.09C53.79 20.46 54 20.97 54 21.5C54 22.03 53.79 22.54 53.41 22.91C53.04 23.29 52.53 23.5 52 23.5C51.47 23.5 50.96 23.29 50.59 22.91L44.82 17.15C44.25 17.37 43.64 17.5 43 17.5C40.24 17.5 38 15.26 38 12.5L39 11.5L41 13.5C42.66 13.5 44 12.16 44 10.5L42 8.5L43 7.5C45.76 7.5 48 9.74 48 12.5C48 13.14 47.87 13.75 47.65 14.32L53.41 20.09Z" fill="#F2C94C"/>
<path d="M54 40.5C54 43.8 53.37 47.08 52.14 50.14L52 50.5L48 46.5L44 42.5L44.36 42.36C47.42 41.13 50.7 40.5 54 40.5Z" fill="#F2C94C"/>
<path d="M44.41 50.09C44.79 50.46 45 50.97 45 51.5C45 52.03 44.79 52.54 44.41 52.91L42.41 54.91C42.04 55.29 41.53 55.5 41 55.5C40.47 55.5 39.96 55.29 39.59 54.91C39.21 54.54 39 54.03 39 53.5C39 52.97 39.21 52.46 39.59 52.09L41.59 50.09C41.96 49.71 42.47 49.5 43 49.5C43.53 49.5 44.04 49.71 44.41 50.09Z" fill="#D3A06C"/>
<path d="M25 25.5H35V33.5H25V25.5Z" fill="#69D6F4"/>
<path d="M28.42 43.5C28.8 44.77 29 46.11 29 47.5C29 55.23 22.73 61.5 15 61.5C7.27 61.5 1 55.23 1 47.5C1 44.87 1.73 42.4 3 40.29C4.02 38.6 5.38 37.14 7 36.01C9.27 34.43 12.03 33.5 15 33.5C15.68 33.5 16.35 33.55 17 33.64C18.41 33.84 19.75 34.26 21 34.85C24.55 36.54 27.28 39.67 28.42 43.5Z" fill="#E6E9ED"/>
<path d="M21 39.5C22.1 39.5 23 40.4 23 41.5C23 42.05 22.78 42.55 22.41 42.91C22.05 43.28 21.55 43.5 21 43.5H13C11.9 43.5 11 42.6 11 41.5C11 40.95 11.22 40.45 11.59 40.09C11.95 39.72 12.45 39.5 13 39.5H21Z" fill="#F2C94C"/>
<path d="M33 15.5H1V19.5H33.58C33.2 18.23 33 16.89 33 15.5Z" fill="#FC6E51"/>
<path d="M27.99 5.91L22.81 2.09C22.28 1.71 21.65 1.5 21 1.5C20.35 1.5 19.72 1.71 19.19 2.09L11.75 7.58L1 15.5H33C33 13.67 33.35 11.93 33.99 10.33L27.99 5.91Z" fill="#FF826E"/>
<path d="M17 53.5V55.5C17 56.6 16.1 57.5 15 57.5C13.9 57.5 13 56.6 13 55.5V53.5C13 52.4 13.9 51.5 15 51.5C15.55 51.5 16.05 51.72 16.41 52.09C16.78 52.45 17 52.95 17 53.5Z" fill="#D3A06C"/>
<path d="M17 23.5V33.64C16.35 33.55 15.68 33.5 15 33.5C12.03 33.5 9.27 34.43 7 36.01V23.5H17Z" fill="#AAB2BD"/>
<path d="M47 32.5C44.472 32.5 42.092 33.135 40 34.244V28.757C42.092 29.865 44.472 30.5 47 30.5C55.271 30.5 62 23.771 62 15.5C62 7.229 55.271 0.5 47 0.5C41.137 0.5 36.063 3.889 33.597 8.803L23.398 1.287C22.018 0.271 19.982 0.27 18.602 1.288L0 14.995V20.5H2V40.048C0.735 42.247 0 44.787 0 47.5C0 55.771 6.729 62.5 15 62.5C23.271 62.5 30 55.771 30 47.5C30 46.473 29.895 45.47 29.698 44.5H32.303C32.105 45.47 32 46.473 32 47.5C32 55.771 38.729 62.5 47 62.5C55.271 62.5 62 55.771 62 47.5C62 39.229 55.271 32.5 47 32.5ZM47 2.5C54.168 2.5 60 8.332 60 15.5C60 22.668 54.168 28.5 47 28.5C39.832 28.5 34 22.668 34 15.5C34 8.332 39.832 2.5 47 2.5ZM32.051 16.5C32.096 17.178 32.17 17.849 32.303 18.5H22V16.5H32.051ZM26.542 6.088L24 9.138V12.5H26V11.118L28.553 12.394L29.448 10.605L26.578 9.17L28.156 7.276L32.803 10.7C32.394 11.906 32.14 13.179 32.052 14.499H22V2.791C22.069 2.829 22.148 2.85 22.212 2.897L26.542 6.088ZM19.788 2.898C19.852 2.851 19.93 2.83 20 2.792V14.5H4.042L11.326 9.133L12.288 11.377L17.804 12.481L18.197 10.52L13.713 9.624L12.98 7.915L19.788 2.898ZM2 16.5H20V18.5H2V16.5ZM4 20.5H20V33.375C19.35 33.144 18.687 32.942 18 32.802V22.5H6V35.528C5.28 36.071 4.611 36.675 4 37.336V20.5ZM16 32.551C15.668 32.529 15.338 32.5 15 32.5C12.472 32.5 10.092 33.135 8 34.244V24.5H16V32.551ZM15 60.5C7.832 60.5 2 54.668 2 47.5C2 40.332 7.832 34.5 15 34.5C22.168 34.5 28 40.332 28 47.5C28 54.668 22.168 60.5 15 60.5ZM29.125 42.5C27.861 38.94 25.3 35.993 22 34.244V20.5H32.875C33.39 21.949 34.119 23.294 35.028 24.5H24V34.5H36V25.664C36.611 26.325 37.28 26.929 38 27.472V35.529C35.669 37.285 33.87 39.7 32.875 42.5H29.125ZM34 26.5V32.5H26V26.5H34ZM47 60.5C39.832 60.5 34 54.668 34 47.5C34 40.332 39.832 34.5 47 34.5C54.168 34.5 60 40.332 60 47.5C60 54.668 54.168 60.5 47 60.5Z" fill="#333333"/>
<path d="M21 38.5H13C11.698 38.5 10.598 39.339 10.184 40.5H6V46.281L14 48.281V50.684C12.839 51.098 12 52.198 12 53.5V55.5C12 57.154 13.346 58.5 15 58.5C16.654 58.5 18 57.154 18 55.5V53.5C18 52.198 17.161 51.098 16 50.684V46.718L8 44.718V42.5H10.184C10.598 43.661 11.698 44.5 13 44.5H21C22.654 44.5 24 43.154 24 41.5C24 39.846 22.654 38.5 21 38.5ZM16 55.5C16 56.052 15.551 56.5 15 56.5C14.449 56.5 14 56.052 14 55.5V53.5C14 52.948 14.449 52.5 15 52.5C15.551 52.5 16 52.948 16 53.5V55.5ZM21 42.5H13C12.449 42.5 12 42.052 12 41.5C12 40.948 12.449 40.5 13 40.5H21C21.551 40.5 22 40.948 22 41.5C22 42.052 21.551 42.5 21 42.5Z" fill="#333333"/>
<path d="M43 18.5C43.518 18.5 44.036 18.43 44.547 18.289L49.879 23.621C50.445 24.188 51.199 24.5 52 24.5C52.801 24.5 53.555 24.187 54.121 23.621C54.688 23.055 55 22.301 55 21.5C55 20.699 54.688 19.945 54.121 19.379L48.789 14.047C48.929 13.536 49 13.019 49 12.5C49 9.191 46.309 6.5 43 6.5H42.586L40.586 8.5L42.964 10.878C42.811 11.679 42.178 12.311 41.379 12.464L39 10.086L37 12.086V12.5C37 15.809 39.691 18.5 43 18.5ZM40.586 14.5H41C43.206 14.5 45 12.706 45 10.5V10.086L43.438 8.523C45.438 8.742 47 10.442 47 12.5C47 12.983 46.904 13.473 46.716 13.953L46.476 14.562L52.707 20.792C52.898 20.984 53 21.229 53 21.5C53 21.771 52.898 22.016 52.707 22.207C52.323 22.59 51.677 22.59 51.293 22.207L45.063 15.977L44.454 16.216C43.972 16.404 43.483 16.5 43 16.5C40.942 16.5 39.243 14.938 39.024 12.938L40.586 14.5Z" fill="#333333"/>
<path d="M43.987 41.429L42.219 42.134L46.586 46.5L44.276 48.811C43.165 48.31 41.766 48.492 40.88 49.379L38.88 51.379C38.312 51.945 38 52.699 38 53.5C38 54.301 38.312 55.055 38.879 55.621C39.445 56.188 40.199 56.5 41 56.5C41.801 56.5 42.555 56.187 43.121 55.621L45.121 53.621C45.688 53.055 46 52.301 46 51.5C46 51.046 45.89 50.613 45.7 50.215L48 47.915L52.365 52.28L53.072 50.514C54.351 47.313 55 43.944 55 40.5V39.5H54C50.553 39.5 47.184 40.149 43.987 41.429ZM43.707 52.207L41.707 54.207C41.323 54.59 40.677 54.59 40.293 54.207C40.102 54.016 40 53.771 40 53.5C40 53.229 40.102 52.984 40.293 52.793L42.293 50.793C42.485 50.602 42.729 50.5 43 50.5C43.271 50.5 43.515 50.602 43.707 50.793C43.898 50.984 44 51.229 44 51.5C44 51.771 43.898 52.016 43.707 52.207ZM51.615 48.7L45.8 42.885C48.118 42.077 50.525 41.62 52.98 41.521C52.88 43.975 52.423 46.382 51.615 48.7Z" fill="#333333"/>
</svg>
