<svg width="64" height="65" viewBox="0 0 64 65" fill="none" xmlns="http://www.w3.org/2000/svg">
<path d="M29.2202 45.9283L35.549 39.9839L33.0363 39.5172C31.8236 39.2734 30.9511 37.8667 30.9511 36.6296V31.1171H25.0748H25.0747H19.1985V36.6296C19.1985 37.8666 18.326 39.2734 17.1132 39.5172L14.6006 39.9839L20.9293 45.9283C23.2596 48.1171 26.89 48.1171 29.2202 45.9283Z" fill="#FDEEDA"/>
<path d="M31.6721 38.6251L25.0747 44.6984L18.4774 38.6251L7.01036 41.3796C3.60773 42.197 1.20898 45.2401 1.20898 48.7396V60.9247C1.20898 62.3816 2.38998 63.5627 3.84698 63.5627H46.3025C47.7594 63.5627 48.9405 62.3817 48.9405 60.9247V48.7396C48.9405 45.2402 46.5417 42.197 43.1391 41.3796L31.6721 38.6251Z" fill="#97E4F9"/>
<path d="M43.1394 41.3796L31.6725 38.6251L25.4028 44.3966L34.9742 46.6957C38.3768 47.5131 40.7756 50.5564 40.7756 54.0557V63.5626H46.3028C47.7597 63.5626 48.9408 62.3815 48.9408 60.9246V48.7395C48.9409 45.2401 46.5421 42.1969 43.1394 41.3796Z" fill="#62D8F9"/>
<path d="M10.2993 39.7221V55.5271H14.7464V39.2556C14.7464 38.7092 14.2538 38.2947 13.7154 38.3882L11.0291 38.8547C10.6072 38.928 10.2993 39.294 10.2993 39.7221Z" fill="#DAEAEF"/>
<path d="M35.4023 39.2556V55.5271H39.8495V39.7221C39.8495 39.294 39.5415 38.928 39.1197 38.8547L36.4333 38.3882C35.895 38.2947 35.4023 38.7092 35.4023 39.2556Z" fill="#DAEAEF"/>
<path d="M39.8495 50.4299V39.7221C39.8495 39.294 39.5415 38.928 39.1197 38.8547L36.4333 38.3882C35.895 38.2947 35.4023 38.7092 35.4023 39.2556V46.8137C37.342 47.4012 38.9177 48.7241 39.8495 50.4299Z" fill="#C7E0E5"/>
<path d="M38.2121 50.6471H11.978C11.105 50.6471 10.3426 51.2476 10.1512 52.0993C9.97196 52.8973 9.57796 53.9136 8.71571 54.8563C7.69684 55.9703 7.13184 57.4253 7.13184 58.9351V63.5626H43.0181V58.9351C43.0181 57.4253 42.4531 55.9703 41.4342 54.8563C40.5903 53.9337 40.1955 52.887 40.0108 52.0681C39.8225 51.2327 39.0683 50.6471 38.2121 50.6471Z" fill="#EFF3F5"/>
<path d="M25.0747 44.6982L28.037 45.4101C29.7615 45.8246 31.5606 45.112 32.5335 43.629L35.4028 39.2555L31.6721 38.625L25.0747 44.6982Z" fill="#0ACEFA"/>
<path d="M25.0747 44.6982L22.1125 45.4101C20.388 45.8246 18.5888 45.112 17.616 43.629L14.7466 39.2555L18.4773 38.625L25.0747 44.6982Z" fill="#0ACEFA"/>
<path d="M14.7464 55.2649C15.2853 55.2649 15.7223 54.8279 15.7223 54.289C15.7223 53.75 15.2853 53.3131 14.7464 53.3131C14.2074 53.3131 13.7705 53.75 13.7705 54.289C13.7705 54.8279 14.2074 55.2649 14.7464 55.2649Z" fill="#333333"/>
<path d="M36.5476 17.6523L35.8145 17.6555L35.8022 14.7011C35.79 11.7601 34.5852 8.91534 32.3755 7.00571C28.0126 3.23546 22.0146 3.23996 17.6591 7.06846C15.4652 8.99684 14.2842 11.8517 14.2965 14.7928L14.3051 16.8757L14.3087 17.7471L13.5756 17.7502C12.5008 17.7548 11.6331 18.6405 11.6377 19.7283L11.6468 21.9112C11.6513 22.9991 12.5263 23.8773 13.6012 23.8727L14.3372 23.8696C14.4097 26.7282 15.6081 29.4748 17.7601 31.3345C19.4926 32.8316 21.9246 34.1345 25.1302 34.157C28.3355 34.1071 30.7566 32.7835 32.4765 31.2716C34.613 29.3936 35.7883 26.6368 35.8371 23.7777L36.5731 23.7746C37.6479 23.77 38.5156 22.8843 38.511 21.7965L38.5019 19.6136C38.4975 18.526 37.6225 17.6477 36.5476 17.6523Z" fill="#FDEEDA"/>
<path d="M37.7783 11.1747C37.6001 10.9784 37.5001 10.7237 37.5012 10.4586C37.5076 8.94173 36.5874 7.63985 35.2792 7.10198C34.9283 6.95773 34.6771 6.65323 34.5823 6.28598C34.2511 5.0016 33.0488 4.07373 31.6511 4.1956C31.0862 2.9121 29.6778 2.2471 28.3533 2.62935C27.9578 2.74348 27.5393 2.6296 27.2582 2.32898C26.1478 1.14148 24.0033 1.13985 22.8913 2.32898C22.6102 2.6296 22.1916 2.74348 21.7962 2.62935C20.4701 2.24648 19.0627 2.91348 18.4984 4.1956C17.1029 4.07385 15.8991 4.99948 15.5672 6.28598C15.4724 6.65335 15.2212 6.95773 14.8703 7.10198C13.5619 7.63985 12.6419 8.94185 12.6483 10.4586C12.6517 11.2814 11.6382 11.4895 11.6382 13.0799C11.6382 15.4169 12.6797 17.976 12.6797 17.976C12.6797 17.976 15.8048 17.9251 16.8663 18.9757C17.0894 19.1966 17.4643 19.0385 17.4629 18.7226L17.4423 13.781C17.4352 12.0651 18.8036 10.6682 20.4988 10.6609L20.5357 10.6606C22.0383 10.6542 22.6764 11.3497 24.7388 11.3409H25.4109C27.4137 11.3494 28.1489 10.6544 29.6141 10.6606L29.6509 10.6609C31.3462 10.6681 32.7146 12.0651 32.7074 13.781L32.6868 18.7226C32.6856 19.0385 33.0603 19.1966 33.2834 18.9757C34.3449 17.9251 37.4701 17.976 37.4701 17.976C37.4701 17.976 38.5116 15.4167 38.5116 13.0799C38.5113 12.3452 38.2334 11.6762 37.7783 11.1747Z" fill="#F9BC66"/>
<path d="M25.2445 4.18804C25.2081 4.18704 25.1714 4.18654 25.1348 4.18591C25.1363 4.18929 25.138 4.19241 25.1395 4.19579C25.1744 4.19266 25.2094 4.19016 25.2445 4.18804Z" fill="#FCE2BE"/>
<path d="M38.5022 19.6139C38.4977 18.5261 37.6227 17.6478 36.5479 17.6524L35.8147 17.6556L35.8025 14.7012C35.7902 11.7602 34.5855 8.91544 32.3757 7.00582C30.788 5.63369 28.6121 4.42557 25.7921 4.21582C26.8991 4.3822 27.7925 5.20719 28.0709 6.28594C28.1665 6.65669 28.4231 6.95919 28.7769 7.10569C30.0837 7.64732 31.0009 8.95207 30.9897 10.4704C30.9879 10.7319 31.0912 10.9811 31.267 11.1747C31.7221 11.6762 32 12.3452 32 13.0798C32 16.2704 30.7319 17.1559 29.1411 25.5943C28.7294 27.7783 27.6441 29.7963 25.9654 31.2718C24.8751 32.2301 23.5029 33.1122 21.8281 33.6428C22.8215 33.9576 23.9209 34.1487 25.1305 34.1572C28.3357 34.1073 30.7569 32.7837 32.4767 31.2719C34.6132 29.3939 35.7886 26.6372 35.8374 23.7781L36.5734 23.7749C37.6482 23.7703 38.5159 22.8847 38.5112 21.7968L38.5022 19.6139Z" fill="#FCE2BE"/>
<path d="M37.7785 11.1748C37.6002 10.9784 37.5002 10.7238 37.5013 10.4587C37.5077 8.94178 36.5876 7.6399 35.2793 7.10203C34.9285 6.95778 34.6772 6.65328 34.5825 6.28603C34.2511 5.0014 33.0486 4.07378 31.6512 4.19565C31.0864 2.91215 29.6781 2.24715 28.3535 2.6294C27.958 2.74353 27.5395 2.62965 27.2584 2.32903C26.148 1.14153 24.0035 1.13978 22.8915 2.32903C22.8182 2.40728 22.7355 2.47228 22.6465 2.5244C23.7599 2.54378 24.7125 3.22453 25.1399 4.19553C25.2196 4.18853 25.2997 4.18315 25.3812 4.18315C26.6742 4.18315 27.7591 5.07615 28.0711 6.2859C28.1667 6.65665 28.4234 6.95915 28.7771 7.10565C30.084 7.64728 31.0011 8.95203 30.99 10.4704C30.9884 10.697 31.066 10.9142 31.201 11.094C32.1066 11.6377 32.7122 12.6382 32.7075 13.7809L32.6869 18.7225C32.6856 19.0384 33.0603 19.1965 33.2835 18.9757C34.345 17.925 37.4701 17.9759 37.4701 17.9759C37.4701 17.9759 38.5116 15.4167 38.5116 13.0798C38.5115 12.3453 38.2336 11.6763 37.7785 11.1748Z" fill="#FAAE43"/>
<path d="M37.4733 63.5625L53.3719 37.7607L50.0573 35.5625L30.1123 63.5625H37.4733Z" fill="#EFF3F5"/>
<path d="M37.4733 63.5624L46.2018 49.3972L42.1273 46.6951L30.1123 63.5624H37.4733Z" fill="#E5A988"/>
<path d="M57.5947 44.2612L52.7694 41.0578L55.3603 37.155L60.1857 40.3584L57.5947 44.2612Z" fill="#DAEAEF"/>
<path d="M51.6282 32.6853L55.7612 35.4263C56.5471 35.9475 56.7617 37.0071 56.2404 37.793L53.4507 41.9996C53.0546 42.5969 52.2493 42.76 51.6521 42.3639L46.8351 39.1693C46.3127 38.8228 46.1132 38.1434 46.3841 37.578C47.7742 34.6761 45.0228 34.2171 43.0809 34.2264C42.4042 34.2296 42.0476 33.416 42.5193 32.9309C44.8878 30.4961 48.0178 30.2908 51.6282 32.6853Z" fill="#C7E0E5"/>
<path d="M60.5218 38.6017L62.4357 39.8709C62.8008 40.1131 62.9006 40.6054 62.6583 40.9706L59.18 46.2154C58.9378 46.5806 58.4455 46.6803 58.0803 46.4381L56.1665 45.1688C55.8013 44.9267 55.7016 44.4343 55.9438 44.0692L59.4222 38.8243C59.6645 38.4592 60.1567 38.3594 60.5218 38.6017Z" fill="#C7E0E5"/>
<path d="M62.9541 39.0898L61.0402 37.8205V37.8206C60.2732 37.3117 59.2283 37.4872 58.6783 38.2561L57.4018 37.4096C57.6241 36.3865 57.2263 35.2727 56.2796 34.6451L52.1466 31.9041C48.252 29.3211 44.5946 29.4537 41.8477 32.2772C40.8032 33.3513 41.5732 35.1637 43.0777 35.1637C43.0982 35.1633 43.1187 35.1636 43.139 35.1636C44.7387 35.1636 45.5317 35.5127 45.7403 35.8422C45.9565 36.1836 45.707 36.8225 45.5392 37.1731C45.1342 38.0183 45.33 39.024 45.9791 39.6723L44.9997 41.0473C43.7598 40.4617 43.0236 40.4258 40.7876 39.8506V39.7221C40.7876 38.836 40.154 38.0827 39.2808 37.9311L36.5945 37.4646C35.8571 37.3367 35.0806 37.6703 34.69 38.3857L32.2386 37.7968C32.02 37.4358 31.8887 37.0103 31.8887 36.6296V32.9212C34.871 30.8428 36.4188 27.922 36.724 24.708C38.2458 24.6243 39.4556 23.3463 39.4491 21.7928L39.4401 19.6098C39.4368 18.8422 39.1302 18.118 38.6095 17.5841C38.9387 16.6032 39.4491 14.8048 39.4491 13.0798C39.4491 12.1386 39.1025 11.2383 38.473 10.5447C38.451 10.5206 38.439 10.4912 38.4391 10.4625C38.4468 8.59758 37.3465 6.93833 35.6361 6.23508C35.5662 6.20633 35.5131 6.13946 35.4905 6.05183C35.0906 4.50208 33.7642 3.39071 32.2047 3.25896C31.3082 1.90146 29.6435 1.28158 28.0938 1.72871C28.0358 1.74546 27.9827 1.73108 27.9432 1.68883C26.4616 0.104084 23.6901 0.102709 22.2068 1.68883C22.1672 1.73108 22.1135 1.74521 22.0563 1.72871C20.5025 1.28046 18.8396 1.90496 17.9453 3.25896C16.386 3.39071 15.0595 4.50208 14.6596 6.05183C14.637 6.13946 14.584 6.20621 14.5141 6.23508C12.8036 6.93821 11.7033 8.59758 11.7111 10.4625C11.7112 10.4912 11.6991 10.5205 11.6772 10.5447C11.0477 11.2385 10.701 12.1387 10.701 13.0798C10.701 14.8441 11.2347 16.6847 11.5626 17.6493C11.016 18.1902 10.6977 18.9348 10.701 19.7325L10.7101 21.9153C10.7165 23.4815 11.9436 24.7382 13.4593 24.8073C13.7878 27.9842 15.3305 30.8611 18.2612 32.9081V36.6297C18.2612 37.0105 18.1298 37.4361 17.9113 37.797L15.4601 38.3858C15.0716 37.6745 14.2975 37.3362 13.5556 37.4647L10.8692 37.9312C9.99622 38.0828 9.36247 38.836 9.36247 39.7222V39.8507L6.79172 40.4682C2.95297 41.3905 0.271973 44.7917 0.271973 48.7396V60.9247C0.271723 62.8961 1.8756 64.5 3.8471 64.5H46.3026C48.2741 64.5 49.878 62.8961 49.878 60.9246V48.7395C49.878 47.7912 49.721 46.8627 49.4135 45.972L51.1496 43.1543C52.0157 43.719 53.1335 43.6056 53.87 42.9388L55.0612 43.7288C54.886 44.0745 54.8311 44.4657 54.9091 44.8512C55.0008 45.3043 55.2636 45.6946 55.6488 45.95L57.5626 47.2192C58.3613 47.749 59.4338 47.5292 59.9615 46.7336L63.44 41.4886C63.9673 40.6933 63.7493 39.6171 62.9541 39.0898ZM40.7875 41.7787C42.715 42.2603 43.133 42.2935 43.8902 42.6047L40.7875 46.9607V41.7787ZM36.3403 39.3233L38.9127 39.7701V49.5925L38.7858 49.7706C38.5975 49.731 38.4052 49.7098 38.212 49.7098H36.3402V39.3233H36.3403ZM31.9392 39.6531L33.7375 40.0851L31.7496 43.1147C30.1625 45.5347 27.3592 44.2035 27.0026 44.1975L31.9392 39.6531ZM30.4635 38.4637L25.0747 43.4242L19.6861 38.4635C19.9763 37.886 20.1358 37.2487 20.1358 36.6297V33.9906C21.6852 34.7102 23.3526 35.0822 25.124 35.0947H25.1307C25.1356 35.0947 25.1403 35.0947 25.1452 35.0946C26.8743 35.0677 28.5016 34.6993 30.0137 34.0002V36.6297C30.0137 37.2487 30.1731 37.886 30.4635 38.4637ZM13.5856 10.4548C13.581 9.35646 14.2251 8.38083 15.2267 7.96908C15.8483 7.71346 16.3032 7.18546 16.4748 6.52021C16.6873 5.69621 17.4202 5.12071 18.2571 5.12071C18.3561 5.12071 19.0612 5.24396 19.3562 4.57333C19.733 3.71746 20.6675 3.27946 21.5362 3.53021C22.2722 3.74271 23.0538 3.52771 23.5758 2.96946C24.314 2.18021 25.8341 2.17858 26.5736 2.96958C27.096 3.52783 27.8775 3.74233 28.6133 3.53021C29.4805 3.27971 30.4161 3.71646 30.7932 4.57333C30.955 4.94071 31.3315 5.16533 31.7326 5.12946C31.7793 5.12533 31.8398 5.12071 31.8925 5.12071C32.7292 5.12071 33.4621 5.69633 33.6747 6.52046C33.8465 7.18558 34.3013 7.71358 34.9228 7.96908C35.9242 8.38083 36.5685 9.35658 36.564 10.4548C36.5618 10.9533 36.7467 11.4327 37.0841 11.8047C37.0842 11.8047 37.0842 11.8048 37.0843 11.8048C37.4001 12.1527 37.574 12.6056 37.574 13.08C37.574 14.5731 37.0958 16.206 36.8102 17.0485C35.989 17.082 34.6703 17.2102 33.6283 17.6623L33.6446 13.785C33.6537 11.5551 31.864 9.73321 29.657 9.72358C29.5243 9.73321 28.7668 9.69533 27.8047 10.0042C24.3343 11.12 22.4816 9.72333 20.5292 9.72333L20.4946 9.72358C18.2852 9.73308 16.4953 11.5551 16.5048 13.785L16.521 17.6623C15.4787 17.21 14.1597 17.0818 13.3385 17.0485C13.0526 16.2078 12.5753 14.5792 12.5753 13.08C12.5755 11.8072 13.5911 11.7668 13.5856 10.4548ZM15.2747 23.8461C15.2617 23.3376 14.8458 22.9326 14.3377 22.9326C14.3362 22.9326 14.335 22.9326 14.3336 22.9326L13.5975 22.9357C13.596 22.9357 13.5946 22.9357 13.5931 22.9357C13.044 22.9357 12.5868 22.4827 12.5846 21.9076L12.5755 19.7248C12.5742 19.4036 12.7188 19.1083 12.96 18.9135C14.0745 18.9305 15.7146 19.1548 16.207 19.6422C17.0201 20.4468 18.405 19.8708 18.4002 18.719L18.3797 13.7773C18.375 12.6285 19.2672 11.5982 20.5565 11.5982C22.068 11.5982 24.386 13.0727 28.3785 11.7892C28.9913 11.5925 29.4567 11.6121 29.647 11.5985C30.8227 11.6036 31.7751 12.581 31.7701 13.7773L31.7495 18.7188C31.7447 19.866 33.1262 20.45 33.943 19.6421C34.4468 19.1432 36.1686 18.9173 37.2862 18.9125C37.4611 19.1006 37.564 19.3516 37.5651 19.6178L37.5741 21.8007C37.5765 22.3701 37.1258 22.8352 36.5696 22.8376L35.8335 22.8406C35.3236 22.8427 34.9088 23.2521 34.9001 23.762C34.8045 29.3746 30.157 33.1365 25.1263 33.2198C20.1233 33.18 15.4177 29.4867 15.2747 23.8461ZM18.2105 39.6531L23.147 44.1976C22.7498 44.2042 19.9957 45.5473 18.3997 43.1148L16.412 40.0852L18.2105 39.6531ZM15.684 42.393L16.8323 44.1432C17.7947 45.6101 19.4307 46.4632 21.1368 46.4632C22.1168 46.4632 22.5556 46.2321 25.0747 45.6622C27.6038 46.2343 28.0327 46.4632 29.0128 46.4632C30.7187 46.4632 32.3548 45.6101 33.3171 44.1432L34.4656 42.3927V49.7097H15.684V42.393ZM6.19435 58.9351V62.6252H3.8471C2.90935 62.6252 2.14647 61.8623 2.14647 60.9246V48.7395C2.14647 45.6616 4.23672 43.0098 7.22947 42.291L9.36222 41.7787V43.3357C9.36222 43.8535 9.78185 44.2731 10.2996 44.2731C10.8173 44.2731 11.237 43.8535 11.237 43.3357V39.7701L13.8093 39.3233V49.7097H11.978C11.722 49.7097 11.4736 49.744 11.2368 49.8075V47.7178C11.2368 47.2001 10.8172 46.7805 10.2995 46.7805C9.78172 46.7805 9.3621 47.2001 9.3621 47.7178V51.4878C9.16735 51.989 9.09335 53.0546 8.02385 54.2238C6.8441 55.5138 6.19435 57.187 6.19435 58.9351ZM42.0805 62.6253H39.1518L41.9938 58.0131C42.0498 58.3166 42.0805 58.6251 42.0805 58.9352V62.6253ZM41.3993 55.4046C41.3976 55.4073 41.3958 55.4102 41.3941 55.413L36.95 62.6253H31.9307L34.0185 59.6945C34.3188 59.2728 34.2205 58.6876 33.7988 58.3872C33.3768 58.0866 32.7918 58.1852 32.4916 58.6068L29.6291 62.6255H8.06897V58.9353C8.06897 55.7107 10.3166 55.6392 11.0656 52.305C11.1595 51.8876 11.5431 51.5846 11.978 51.5846H37.4938L35.0537 55.0102C34.7533 55.4318 34.8517 56.0171 35.2733 56.3175C35.6962 56.6187 36.281 56.5185 36.5806 56.0978L39.8978 51.4408C39.8981 51.4405 39.8983 51.4401 39.8986 51.4397L42.3648 47.9773L44.9282 49.6775L41.3993 55.4046ZM48.0032 60.9246C48.0032 61.8623 47.2403 62.6252 46.3026 62.6252H43.9552V58.9351C43.9552 57.8968 43.7207 56.8706 43.2747 55.9345L47.9862 48.2882C48.0188 48.7722 47.9961 48.0447 48.0032 60.9246ZM45.9122 48.0806L43.4531 46.4496L47.5162 40.7455L49.5861 42.1182L45.9122 48.0806ZM52.8835 41.1595C52.8835 41.1596 52.8833 41.1597 52.8832 41.1597C52.8832 41.1598 52.8831 41.16 52.8831 41.16L52.67 41.4813C52.5601 41.6468 52.336 41.6925 52.1706 41.5826L47.3537 38.3881C47.2163 38.297 47.1631 38.1226 47.23 37.9828C47.8258 36.7391 47.8576 35.6813 47.3245 34.8393C46.7096 33.8682 45.4211 33.3491 43.4917 33.2937C45.5493 31.4193 48.1105 31.4767 51.1106 33.4663L55.2437 36.2075C55.5886 36.436 55.6941 36.899 55.4707 37.2567C55.4701 37.2576 55.4695 37.2583 55.4688 37.2592C55.4626 37.2688 55.4567 37.2787 55.4508 37.2885L52.8835 41.1595ZM54.9636 41.4147L56.517 39.0725L57.6396 39.817L56.0862 42.1592L54.9636 41.4147ZM58.4787 45.5773L56.8051 44.4675L59.7196 40.0727C59.7197 40.0725 59.72 40.0722 59.7201 40.072C59.7203 40.0717 59.7205 40.0713 59.7207 40.071L60.1241 39.4626L61.7978 40.5726L58.4787 45.5773Z" fill="#333333"/>
</svg>
