<svg width="64" height="64" viewBox="0 0 64 64" fill="none" xmlns="http://www.w3.org/2000/svg">
<g clip-path="url(#clip0)">
<path d="M64 30.6665V49.3335C64 49.9199 63.6265 50.4268 63.0669 50.6133L20.3999 63.9468C20.2666 63.9731 20.1333 64 20 64V44L63.9199 30.2666C63.9731 30.3999 64 30.5332 64 30.6665Z" fill="#F2C94C"/>
<path d="M20 44V64C19.7598 64 19.5469 63.9468 19.3335 63.8135L0.666504 53.1465C0.266601 52.9067 0 52.48 0 52V33.3335C0 33.0933 0.0532226 32.8535 0.186523 32.6665L20 44Z" fill="#FFA000"/>
<path d="M63.9199 30.9336L20 44.6665L0.186523 33.3335C0.34668 33.0401 0.613281 32.8267 0.933105 32.7203L43.6001 19.3868C43.9468 19.2803 44.3467 19.3335 44.6665 19.5201L63.3335 30.1866C63.6265 30.3467 63.8398 30.6133 63.9199 30.9336Z" fill="#FFC107"/>
<path d="M56.3518 19.3519L40.4612 11.4081C37.616 9.98914 33.9651 10.7572 31.9382 13.1918L13.6423 35.1464C13.2747 35.5892 13.2317 36.2211 13.5383 36.7094C13.7839 37.1039 14.2156 37.3334 14.6663 37.3334C14.7732 37.3334 14.8826 37.3197 14.989 37.2933L55.4905 27.1654C57.3596 26.701 58.6638 25.0321 58.6638 23.0961C58.6663 21.5013 57.7786 20.0668 56.3518 19.3519Z" fill="#CFD8DC"/>
<path d="M59.6264 0H58.3998C57.4081 0 56.4374 0.341309 55.6664 0.957519L48.1918 6.93848C47.2026 7.72803 46.9174 9.06689 47.4985 10.1919C47.9628 11.0908 48.8559 11.6162 49.8158 11.6162C50.0614 11.6162 50.3095 11.5815 50.5546 11.5122L60.829 8.57617C62.6957 8.04785 63.9999 6.31494 63.9999 4.37354C63.9999 1.95996 62.037 0 59.6264 0Z" fill="#455A64"/>
<path d="M20 64.0001C19.7734 64.0001 19.5439 63.9439 19.3389 63.8267L0.671875 53.1602C0.255859 52.92 0 52.4801 0 52.0001V33.3336C0 32.856 0.253418 32.419 0.664062 32.1788C1.07471 31.9415 1.58154 31.9386 1.99463 32.1734L20.6611 42.8399C21.0771 43.0802 21.3335 43.5201 21.3335 44.0001V62.6666C21.3335 63.1441 21.0801 63.5816 20.6694 63.8214C20.4614 63.9415 20.2319 64.0001 20 64.0001ZM2.6665 51.2266L18.6665 60.3707V44.7735L2.6665 35.6295V51.2266Z" fill="#333333"/>
<path d="M23.9999 38.6667C23.7679 38.6667 23.5306 38.6081 23.3143 38.4778L19.3143 36.0774C18.6825 35.696 18.4799 34.8801 18.8588 34.2458C19.2401 33.6189 20.056 33.4084 20.6879 33.7898L24.6879 36.1897C25.3197 36.571 25.5223 37.3869 25.1439 38.0217C24.8934 38.4348 24.4506 38.6667 23.9999 38.6667Z" fill="#333333"/>
<path d="M32.0003 36.0001C31.7684 36.0001 31.5311 35.9416 31.3148 35.8107L27.7845 33.6935C27.1522 33.3151 26.9496 32.4962 27.3285 31.8644C27.7069 31.2321 28.5228 31.0241 29.1576 31.4054L32.6883 33.5226C33.3202 33.9015 33.5228 34.7204 33.1444 35.3522C32.8939 35.7682 32.451 36.0001 32.0003 36.0001Z" fill="#333333"/>
<path d="M40.0003 33.3337C39.7684 33.3337 39.5311 33.2751 39.3148 33.1442L36.5711 31.4987C35.9388 31.1203 35.7362 30.3014 36.1151 29.6696C36.4935 29.0378 37.3124 28.8298 37.9442 29.2111L40.6883 30.8561C41.3202 31.235 41.5228 32.0534 41.1444 32.6857C40.8939 33.1017 40.451 33.3337 40.0003 33.3337Z" fill="#333333"/>
<path d="M48 30.6666C47.7681 30.6666 47.5308 30.608 47.3145 30.4776L45.3545 29.3014C44.7227 28.92 44.52 28.1041 44.8985 27.4693C45.2774 26.8429 46.0933 26.6319 46.728 27.0133L48.688 28.1895C49.3198 28.5709 49.5225 29.3868 49.1441 30.0216C48.8936 30.4347 48.4507 30.6666 48 30.6666Z" fill="#333333"/>
<path d="M19.9998 63.9999C19.4319 63.9999 18.9065 63.6346 18.7278 63.0638C18.5066 62.3597 18.8982 61.6132 19.6023 61.392L61.3333 48.3544V32.4798L20.3972 45.2748C19.6985 45.493 18.9465 45.1039 18.7278 44.3998C18.5066 43.6957 18.8982 42.9491 19.6023 42.7279L62.2693 29.3944C62.677 29.2718 63.1145 29.3441 63.4558 29.5916C63.7971 29.8426 63.9998 30.2425 63.9998 30.6664V49.3334C63.9998 49.9173 63.6209 50.432 63.0637 50.6078L20.3972 63.9413C20.2664 63.9813 20.1306 63.9999 19.9998 63.9999Z" fill="#333333"/>
<path d="M62.6663 32.0001C62.4427 32.0001 62.2156 31.9439 62.0052 31.8267L53.8904 27.1895C53.2503 26.8214 53.0291 26.0079 53.3943 25.3682C53.7595 24.7281 54.5706 24.5093 55.2131 24.8692L63.3279 29.5069C63.9676 29.8746 64.1892 30.688 63.824 31.3282C63.5784 31.7574 63.1277 32.0001 62.6663 32.0001Z" fill="#333333"/>
<path d="M1.33326 34.6664C0.743905 34.6664 0.205331 34.2748 0.0476162 33.6771C-0.141349 32.9652 0.27955 32.2347 0.991952 32.0453L20.992 26.7118C21.7063 26.5414 22.4343 26.9437 22.6238 27.6561C22.8132 28.368 22.3919 29.0985 21.6799 29.288L1.67994 34.6214C1.55982 34.6507 1.44508 34.6664 1.33326 34.6664Z" fill="#333333"/>
<path d="M30.6664 26.6663C30.2133 26.6663 29.7734 26.4344 29.5224 26.0183C29.144 25.389 29.3491 24.5677 29.9785 24.1892L42.9252 16.4212L45.4267 10.1707C45.5468 9.86649 45.7758 9.61845 46.0693 9.47196L48.7358 8.13847C49.3945 7.8079 50.1948 8.07987 50.5253 8.73563C50.8559 9.39433 50.5864 10.1946 49.9282 10.5252L47.7148 11.6316L45.2372 17.8265C45.1279 18.0984 44.936 18.325 44.6855 18.4744L31.352 26.4744C31.1386 26.6077 30.9013 26.6663 30.6664 26.6663Z" fill="#333333"/>
<path d="M14.6663 37.3334C14.2156 37.3334 13.7839 37.1039 13.5383 36.7094C13.2317 36.2211 13.2747 35.5892 13.6423 35.1464L31.9382 13.1918C33.9651 10.7572 37.613 9.98914 40.4612 11.4081L56.3518 19.3519C57.7786 20.0668 58.6663 21.5013 58.6663 23.0961C58.6663 25.0345 57.3626 26.704 55.4929 27.1654L14.989 37.2933C14.8826 37.3197 14.7732 37.3334 14.6663 37.3334ZM37.3279 13.3334C36.0344 13.3334 34.8157 13.9037 33.989 14.8988L18.3064 33.7172L54.8503 24.5785C55.5276 24.4105 55.9998 23.8051 55.9998 23.1068C55.9998 22.5175 55.677 21.9974 55.1599 21.7357L39.2717 13.7919C38.6692 13.493 37.9973 13.3334 37.3279 13.3334Z" fill="#333333"/>
<path d="M49.8131 11.6162C48.8532 11.6162 47.9596 11.0908 47.4957 10.1919C46.9142 9.06689 47.1998 7.72803 48.1891 6.93848L55.6637 0.957519C56.4372 0.341309 57.4079 0 58.3996 0H59.6261C62.0368 0 63.9997 1.95996 63.9997 4.37354C63.9997 6.31738 62.6955 8.04785 60.8288 8.57861L50.5543 11.5146C50.3063 11.584 50.0583 11.6162 49.8131 11.6162ZM58.3996 2.6665C58.0129 2.6665 57.6344 2.7998 57.3356 3.04004L50.0182 8.89355L60.0959 6.01611C60.8239 5.80811 61.3332 5.13086 61.3332 4.37354C61.3332 3.43213 60.5675 2.6665 59.6261 2.6665H58.3996Z" fill="#333333"/>
</g>
<defs>
<clipPath id="clip0">
<rect width="64" height="64" fill="white"/>
</clipPath>
</defs>
</svg>
