<svg width="64" height="64" viewBox="0 0 64 64" fill="none" xmlns="http://www.w3.org/2000/svg">
<path d="M38.802 10.4715V31.087H34.2795C32.0195 31.087 30.1874 32.919 30.1874 35.1791V53.5096H4.51753C3.20978 53.5096 2.1499 52.4497 2.1499 51.142V10.4715C2.1499 9.16375 3.20978 8.10388 4.51753 8.10388H13.6227C13.6227 4.31838 16.6923 1.25 20.4765 1.25C24.2608 1.25 27.3292 4.31838 27.3292 8.10388H36.4343C37.742 8.10388 38.802 9.16388 38.802 10.4715Z" fill="#F9F6F4"/>
<path d="M31.6761 8.104V14.0851H9.27588V8.104H13.6226C13.6226 4.318 16.692 1.25 20.4768 1.25C24.2615 1.25 27.3294 4.318 27.3294 8.104H31.6761Z" fill="#F2C94C"/>
<path d="M61.8506 46.9231V35.1792C61.8506 32.9189 60.0183 31.0867 57.7581 31.0867H46.0234V46.9231H61.8506Z" fill="#BEDAFF"/>
<path d="M46.0234 31.0876H34.2795C32.0193 31.0876 30.187 32.9199 30.187 35.1801V46.924H46.0233V31.0876H46.0234Z" fill="#BEDAFF"/>
<path d="M30.187 46.9231V58.6577C30.187 60.918 32.0193 62.7502 34.2795 62.7502H46.0234V46.9231H30.187Z" fill="#BEDAFF"/>
<path d="M46.0234 46.9231V62.7502H57.7581C60.0183 62.7502 61.8506 60.918 61.8506 58.6577V46.9231H46.0234Z" fill="#F2C94C"/>
<path d="M9.27588 21.0974H16.7906V28.6122H9.27588V21.0974Z" fill="#BEDAFF"/>
<path d="M21.6299 5.77121C21.4282 5.27859 20.9153 4.96359 20.3847 5.00309C19.8634 5.04196 19.4121 5.41184 19.2724 5.91571C18.9727 6.99734 20.2042 7.90159 21.1471 7.30309C21.6527 6.98221 21.8601 6.32321 21.6299 5.77121Z" fill="#333333"/>
<path d="M57.7578 29.8365H40.052V10.4715C40.052 8.47675 38.4292 6.85388 36.4344 6.85388H28.483C27.8782 2.96263 24.4127 0 20.4765 0C16.5395 0 13.0744 2.9585 12.4689 6.85388H4.51753C2.52278 6.85388 0.899902 8.47675 0.899902 10.4715V51.1419C0.899902 53.1366 2.52278 54.7595 4.51753 54.7595H28.9368V58.6575C28.9368 61.6033 31.3334 63.9999 34.2793 63.9999H57.7578C60.7035 63.9999 63.1002 61.6033 63.1002 58.6575V35.1791C63.1002 32.2331 60.7035 29.8365 57.7578 29.8365ZM60.6002 35.1791V45.6729H47.2732V32.3366H57.7578C59.3252 32.3365 60.6002 33.6118 60.6002 35.1791ZM44.7732 45.6729H31.4374V35.1791C31.4374 33.612 32.7123 32.3371 34.2794 32.3371L44.773 32.3366V45.6729H44.7732ZM10.5259 9.354H13.6227C14.3032 9.354 14.8727 8.78487 14.8727 8.10388C14.8727 5.054 17.423 2.5 20.4765 2.5C23.5658 2.5 26.0792 5.01388 26.0792 8.10388C26.0792 8.78475 26.6485 9.354 27.3292 9.354H30.4259V12.8352H10.5259V9.354ZM4.51753 52.2596C3.90128 52.2596 3.3999 51.7582 3.3999 51.142V10.4715C3.3999 9.85513 3.90128 9.35388 4.51753 9.35388H8.0259V14.0852C8.0259 14.7755 8.58553 15.3352 9.2759 15.3352H31.676C32.3664 15.3352 32.926 14.7755 32.926 14.0852V9.35388H36.4344C37.0507 9.35388 37.552 9.85525 37.552 10.4715V29.8365H34.2793C31.3334 29.8365 28.9368 32.2331 28.9368 35.179V52.2596H4.51753ZM31.4368 58.6576V53.5218C31.4368 53.5176 31.4374 53.5137 31.4374 53.5096V48.1729H44.7732V61.5H34.2793C32.7119 61.5 31.4368 60.2249 31.4368 58.6576ZM60.6002 58.6576C60.6002 60.2249 59.325 61.5 57.7578 61.5H47.2732V48.1729H60.6003V58.6576H60.6002Z" fill="#333333"/>
<path d="M38.0445 35.0005C37.3541 35.0005 36.7945 35.5602 36.7945 36.2505V37.7281H35.3169C34.6265 37.7281 34.0669 38.2879 34.0669 38.9781C34.0669 39.6684 34.6265 40.2281 35.3169 40.2281H36.7945V41.7056C36.7945 42.3959 37.3541 42.9556 38.0445 42.9556C38.7349 42.9556 39.2945 42.3959 39.2945 41.7056V40.2281H40.772C41.4624 40.2281 42.022 39.6684 42.022 38.9781C42.022 38.2879 41.4624 37.7281 40.772 37.7281H39.2945V36.2505C39.2945 35.5601 38.7349 35.0005 38.0445 35.0005Z" fill="#333333"/>
<path d="M40.7725 53.6084H35.3174C34.627 53.6084 34.0674 54.1681 34.0674 54.8584C34.0674 55.5486 34.627 56.1084 35.3174 56.1084H40.7725C41.4629 56.1084 42.0225 55.5486 42.0225 54.8584C42.0225 54.1681 41.4629 53.6084 40.7725 53.6084Z" fill="#333333"/>
<path d="M51.5171 53.7422H55.8488C56.5392 53.7422 57.0988 53.1824 57.0988 52.4922C57.0988 51.8019 56.5392 51.2422 55.8488 51.2422H51.5171C50.8267 51.2422 50.2671 51.8019 50.2671 52.4922C50.2671 53.1824 50.8267 53.7422 51.5171 53.7422Z" fill="#333333"/>
<path d="M51.5171 58.3672H55.8488C56.5392 58.3672 57.0988 57.8074 57.0988 57.1172C57.0988 56.4269 56.5392 55.8672 55.8488 55.8672H51.5171C50.8267 55.8672 50.2671 56.4269 50.2671 57.1172C50.2671 57.8074 50.8267 58.3672 51.5171 58.3672Z" fill="#333333"/>
<path d="M50.87 41.7906C51.1141 42.0346 51.434 42.1567 51.7539 42.1567C52.0737 42.1567 52.3937 42.0346 52.6377 41.7906L53.6826 40.7457L54.7275 41.7906C54.9716 42.0346 55.2915 42.1567 55.6114 42.1567C55.9312 42.1567 56.2512 42.0346 56.4952 41.7906C56.9834 41.3024 56.9834 40.5109 56.4952 40.0227L55.4505 38.9779L56.4952 37.9332C56.9834 37.4451 56.9835 36.6536 56.4952 36.1653C56.0071 35.6774 55.2156 35.6773 54.7275 36.1653L53.6826 37.2102L52.6377 36.1653C52.1496 35.6773 51.3581 35.6773 50.87 36.1653C50.3819 36.6534 50.3819 37.4449 50.87 37.9332L51.9147 38.9779L50.87 40.0227C50.382 40.5109 50.3819 41.3024 50.87 41.7906Z" fill="#333333"/>
<path d="M9.27588 29.8619H16.7906C17.481 29.8619 18.0406 29.3022 18.0406 28.6119V21.0972C18.0406 20.4069 17.481 19.8472 16.7906 19.8472H9.27588C8.5855 19.8472 8.02588 20.4069 8.02588 21.0972V28.6119C8.02588 29.3023 8.5855 29.8619 9.27588 29.8619ZM10.5259 22.3472H15.5406V27.3619H10.5259V22.3472Z" fill="#333333"/>
<path d="M23.0068 22.3472H31.0285C31.7189 22.3472 32.2785 21.7874 32.2785 21.0972C32.2785 20.4069 31.7189 19.8472 31.0285 19.8472H23.0068C22.3165 19.8472 21.7568 20.4069 21.7568 21.0972C21.7568 21.7874 22.3165 22.3472 23.0068 22.3472Z" fill="#333333"/>
<path d="M29.5191 28.6121C29.5191 27.9218 28.9595 27.3621 28.2691 27.3621H23.0068C22.3165 27.3621 21.7568 27.9218 21.7568 28.6121C21.7568 29.3023 22.3165 29.8621 23.0068 29.8621H28.2691C28.9595 29.8621 29.5191 29.3024 29.5191 28.6121Z" fill="#333333"/>
<path d="M9.27588 37.7021H24.5373C25.2276 37.7021 25.7873 37.1424 25.7873 36.4521C25.7873 35.7619 25.2276 35.2021 24.5373 35.2021H9.27588C8.5855 35.2021 8.02588 35.7619 8.02588 36.4521C8.02588 37.1424 8.5855 37.7021 9.27588 37.7021Z" fill="#333333"/>
<path d="M18.833 42.0408H9.27588C8.5855 42.0408 8.02588 42.6005 8.02588 43.2908C8.02588 43.981 8.5855 44.5408 9.27588 44.5408H18.833C19.5234 44.5408 20.083 43.981 20.083 43.2908C20.083 42.6005 19.5234 42.0408 18.833 42.0408Z" fill="#333333"/>
<path d="M25.6912 42.8173C25.2717 41.8095 23.8 41.8097 23.3825 42.8173C22.9318 43.9049 24.1697 44.9714 25.1796 44.3673C25.7032 44.0542 25.926 43.3804 25.6912 42.8173Z" fill="#333333"/>
</svg>
