<svg width="52" height="64" viewBox="0 0 52 64" fill="none" xmlns="http://www.w3.org/2000/svg">
<path d="M29.7877 62.0505L40.3938 55.9273C46.6447 52.3185 50.4955 45.649 50.4955 38.4312V12.2932C50.4955 10.9468 49.4444 9.82774 48.0996 9.75924C36.7342 9.18034 30.5622 4.55176 27.8066 1.70188C26.8212 0.682707 25.1783 0.682707 24.1928 1.70188C21.4373 4.55176 15.2653 9.18034 3.89976 9.75924C2.55508 9.82774 1.50391 10.9468 1.50391 12.2932V38.4312C1.50391 45.649 5.3547 52.3185 11.6056 55.9273L22.2117 62.0505C24.5559 63.4036 27.4437 63.4036 29.7877 62.0505Z" fill="#EAB14D"/>
<path d="M18.6768 53.0857C13.9034 53.0857 9.37098 52.0547 5.28955 50.2038C6.93737 52.5023 9.07485 54.466 11.6063 55.9275L22.2124 62.0506C24.5564 63.4038 27.4442 63.4038 29.7882 62.0506L40.3943 55.9275C46.6452 52.3187 50.496 45.6491 50.496 38.4313V27.0293C47.5263 41.8888 34.4099 53.0857 18.6768 53.0857Z" fill="#E3B424"/>
<path d="M26.0002 58.015C25.5575 58.015 25.1209 57.898 24.7375 57.6767L14.1314 51.5535C9.45818 48.8556 6.55518 43.8274 6.55518 38.4315V15.7491C6.55518 15.1145 7.02607 14.5764 7.6556 14.4973C16.0737 13.4381 21.7334 10.3081 25.2206 7.5572C25.678 7.19643 26.3223 7.19643 26.7797 7.5572C30.2671 10.3081 35.9267 13.438 44.3447 14.4973C44.9743 14.5765 45.4452 15.1147 45.4452 15.7491V38.4315C45.4452 43.8276 42.5422 48.8557 37.869 51.5537L27.2629 57.6767C26.8795 57.8981 26.4429 58.015 26.0002 58.015Z" fill="#FFE07D"/>
<path d="M14.3834 48.7927C13.0485 48.7927 11.733 48.7104 10.4404 48.5537C11.4921 49.7272 12.7314 50.7455 14.1311 51.5535L24.7372 57.6766C25.1206 57.898 25.5572 58.0149 25.9999 58.0149C26.4425 58.0149 26.8792 57.8979 27.2626 57.6766L37.8687 51.5536C42.5419 48.8556 45.4449 43.8275 45.4449 38.4314V25.7568C41.4098 39.0872 29.0309 48.7927 14.3834 48.7927Z" fill="#F2C94C"/>
<path d="M22.2116 44.0159C21.242 44.0159 20.2726 43.6462 19.5328 42.9065L11.9563 35.3299C10.4768 33.8505 10.4768 31.4517 11.9563 29.9723C13.4357 28.4929 15.8343 28.4929 17.3136 29.9723L22.2115 34.8703L34.6859 22.3957C36.1653 20.9163 38.5639 20.9163 40.0433 22.3957C41.5227 23.8752 41.5227 26.2739 40.0433 27.7533L24.8901 42.9065C24.1507 43.6462 23.1811 44.0159 22.2116 44.0159Z" fill="#95D6A4"/>
<path d="M40.0436 22.3954C39.6601 22.0118 39.2145 21.7286 38.7394 21.5439C39.267 22.9014 38.9839 24.5015 37.888 25.5974L22.7349 40.7505C21.9953 41.4902 21.0257 41.86 20.0562 41.86C19.0866 41.86 18.1172 41.4902 17.3774 40.7505L19.533 42.9061C20.2727 43.6458 21.2422 44.0156 22.2118 44.0156C23.1813 44.0156 24.1507 43.6458 24.8905 42.9061L40.0437 27.753C41.523 26.2735 41.523 23.8748 40.0436 22.3954Z" fill="#78C2A4"/>
<path d="M50.4961 22.2876C51.0139 22.2876 51.4337 21.868 51.4337 21.3501V12.2934C51.4337 10.4417 49.9902 8.9174 48.1474 8.82327C37.0288 8.25712 31.0529 3.71004 28.4805 1.05005C27.8258 0.372892 26.9448 0 26 0C25.0553 0 24.1743 0.372892 23.5198 1.04992C20.9472 3.70992 14.9713 8.257 3.85243 8.82327C2.00985 8.9174 0.566406 10.4416 0.566406 12.2934V38.4322C0.566406 45.9602 4.61671 52.9753 11.137 56.7399L21.7436 62.8626C23.0565 63.621 24.5281 64.0001 26.0002 64.0001C27.4719 64.0001 28.9439 63.621 30.2565 62.8627L40.8633 56.74C47.3834 52.9754 51.4338 45.9603 51.4338 38.4324V25.7255C51.4338 25.2076 51.014 24.788 50.4963 24.788C49.9785 24.788 49.5587 25.2076 49.5587 25.7255V38.4324C49.5587 45.2925 45.8676 51.6854 39.9258 55.1162L29.3188 61.239C27.2719 62.4214 24.7284 62.4213 22.6812 61.2389L12.0744 55.1162C6.13266 51.6854 2.44149 45.2925 2.44149 38.4324V12.2934C2.44149 11.4409 3.10327 10.7391 3.94793 10.696C15.7091 10.0971 22.103 5.21211 24.8677 2.35348C25.1659 2.04509 25.568 1.87521 26 1.87521C26.4321 1.87521 26.8342 2.04509 27.1325 2.35361C29.897 5.21211 36.2909 10.0971 48.0519 10.696C48.8968 10.7392 49.5586 11.4409 49.5586 12.2934V21.3501C49.5586 21.868 49.9784 22.2876 50.4961 22.2876Z" fill="#333333"/>
<path d="M6.55571 24.7877C6.03793 24.7877 5.61816 25.2073 5.61816 25.7252V38.432C5.61816 44.1608 8.70043 49.4999 13.6623 52.3658L24.2694 58.4887C24.7959 58.7923 25.3944 58.9528 26.0003 58.9528C26.6062 58.9528 27.2048 58.7923 27.7317 58.4884L38.3386 52.3656C43.3004 49.4999 46.3826 44.1608 46.3826 38.432V15.7485C46.3826 14.6417 45.5567 13.7038 44.462 13.5669C36.053 12.5092 30.5213 9.31459 27.3603 6.81997C26.5596 6.19007 25.4412 6.19007 24.6395 6.82085C21.4796 9.31459 15.9478 12.5092 7.53962 13.5668C6.44433 13.7038 5.61829 14.6417 5.61829 15.7485V21.35C5.61829 21.8679 6.03806 22.2875 6.55583 22.2875C7.0736 22.2875 7.49337 21.8679 7.49337 21.35V15.7485C7.49337 15.5852 7.61313 15.4472 7.77289 15.4274C16.6098 14.3158 22.4543 10.9342 25.8001 8.29379C25.9178 8.20091 26.0826 8.20079 26.1997 8.29292C29.5465 10.9342 35.391 14.3159 44.2288 15.4275C44.3877 15.4472 44.5075 15.5854 44.5075 15.7485V38.432C44.5075 43.4932 41.7844 48.2102 37.4011 50.7419L26.7947 56.8645C26.3106 57.1437 25.6901 57.1435 25.2067 56.8647L14.6001 50.7421C10.2166 48.2102 7.49337 43.4934 7.49337 38.432V25.7252C7.49325 25.2073 7.0736 24.7877 6.55571 24.7877Z" fill="#333333"/>
<path d="M14.6354 29.8001C15.3968 29.8001 16.1124 30.0965 16.6507 30.6347L21.5497 35.5325C21.916 35.8987 22.5094 35.8985 22.8755 35.5325L28.242 30.166C28.6081 29.7997 28.6081 29.2062 28.242 28.84C27.8758 28.474 27.2822 28.474 26.9162 28.84L22.2126 33.5437L17.9767 29.3089C17.0844 28.4165 15.8978 27.9251 14.6355 27.9251C13.3732 27.9251 12.1866 28.4166 11.2944 29.3088C10.4014 30.2018 9.90967 31.3888 9.90967 32.6511C9.90967 33.9137 10.4016 35.1004 11.2944 35.9925L18.8703 43.5684C19.7621 44.4617 20.949 44.9536 22.2127 44.9536C23.4755 44.9536 24.6621 44.4616 25.5532 43.5691L40.7061 28.416C41.5992 27.5236 42.0911 26.3369 42.0911 25.0745C42.0911 23.812 41.5993 22.6251 40.7064 21.7322C39.8141 20.8399 38.6276 20.3486 37.3653 20.3486C36.103 20.3486 34.9164 20.84 34.0241 21.7322L30.0102 25.746C29.6441 26.1123 29.6441 26.7058 30.0102 27.0719C30.3763 27.438 30.97 27.438 31.336 27.0719L35.3499 23.058C35.8881 22.5199 36.6037 22.2236 37.3653 22.2236C38.1267 22.2236 38.8423 22.5199 39.3806 23.0581C39.9194 23.5969 40.2162 24.3129 40.2162 25.0745C40.2162 25.8359 39.9195 26.5514 39.3806 27.0898L24.2268 42.2438C23.6893 42.7822 22.974 43.0787 22.2127 43.0787C21.4506 43.0787 20.7348 42.7822 20.1968 42.2431L12.6199 34.6663C12.0814 34.1281 11.7848 33.4125 11.7848 32.6511C11.7848 31.8895 12.0815 31.1735 12.6203 30.6347C13.1583 30.0965 13.874 29.8001 14.6354 29.8001Z" fill="#333333"/>
</svg>
