<svg width="64" height="64" viewBox="0 0 64 64" fill="none" xmlns="http://www.w3.org/2000/svg">
<g clip-path="url(#clip0)">
<path d="M0.943848 13.9963C0.943848 13.9963 1.03397 46.4584 0.943848 49.9414C1.03397 53.2739 3.76185 55.9483 7.11611 55.9483H38.0888L58.6438 35.3933V13.9963H0.943848Z" fill="#E0E0E2"/>
<path d="M31.0786 62.9581H63.0604V30.9763L31.0786 62.9581ZM56.2697 56.2989H46.0039L56.2697 46.0331V56.2989Z" fill="#FFCA10"/>
<path d="M59.9297 34.1075V62.9581H63.0608V30.9763L59.9297 34.1075Z" fill="#F2C94C"/>
<path d="M55.9079 4.52494L52.9886 1.60556C52.2369 0.85381 51.0181 0.85381 50.2665 1.60556L47.7407 4.13132L53.3821 9.7727L55.9077 7.24707C56.6595 6.49532 56.6595 5.27669 55.9079 4.52494Z" fill="#546F7A"/>
<path d="M55.9077 4.52479L54.027 2.64453C54.7787 3.39628 54.7787 4.61503 54.027 5.36666L51.5015 7.89217L53.382 9.77267L55.9076 7.24704C56.6593 6.49516 56.6594 5.27654 55.9077 4.52479Z" fill="#475D63"/>
<path d="M53.381 9.77211L47.7397 4.13086L44.6877 7.18289L50.329 12.8241L53.381 9.77211Z" fill="#FF6137"/>
<path d="M53.3821 9.77169L51.502 7.8916L48.4499 10.9436L50.33 12.8237L53.3821 9.77169Z" fill="#E04F32"/>
<path d="M20.8335 36.6798L29.5439 33.605L23.9083 27.9695L20.8335 36.6798Z" fill="#FFC89F"/>
<path d="M27.6698 31.731L21.856 33.7831L20.8335 36.6797L29.5439 33.605L27.6698 31.731Z" fill="#F7B081"/>
<path d="M29.5526 33.6022L50.3286 12.8262L44.6873 7.18483L23.9112 27.9609L29.5526 33.6022Z" fill="#FFD039"/>
<path d="M29.5526 33.6022L50.3286 12.8262L48.4503 10.9478L27.6742 31.7239L29.5526 33.6022Z" fill="#F2C94C"/>
<path d="M7.38834 43.6621V3.76392C3.82671 3.76392 0.939453 6.65117 0.939453 10.2128V50.111C0.939578 46.5494 3.82683 43.6621 7.38834 43.6621Z" fill="#919191"/>
<path d="M17.3267 36.6798H20.8335L23.9115 27.9605L37.8756 13.9963H34.3687L20.4047 27.9605L17.3267 36.6798Z" fill="#C6C5CA"/>
<path d="M55.5127 13.9963V38.5244L58.6438 35.3933V13.9963H55.5127Z" fill="#C6C5CA"/>
<path d="M20.8335 36.6797L24.8985 35.2449L22.2685 32.615L20.8335 36.6797Z" fill="#3C5156"/>
<path d="M56.6295 45.1654C56.2785 45.0199 55.8745 45.1002 55.6058 45.3689L45.34 55.6346C45.0714 55.9034 44.9911 56.3074 45.1365 56.6584C45.2817 57.0094 45.6245 57.2383 46.0044 57.2383H56.2701C56.789 57.2383 57.2095 56.8178 57.2095 56.2989V46.0331C57.2094 45.6532 56.9805 45.3107 56.6295 45.1654ZM55.3308 55.3596H48.272L55.3306 48.301L55.3308 55.3596Z" fill="#333333"/>
<path d="M63.4203 30.1085C63.0693 29.963 62.6652 30.0433 62.3965 30.312L59.5831 33.1254V13.9964C59.5831 13.4776 59.1625 13.0571 58.6437 13.0571H51.4261L54.0461 10.4371C54.0465 10.4367 54.0469 10.4362 54.0472 10.4358L56.5717 7.9113C57.1126 7.37043 57.4105 6.65093 57.4105 5.88593C57.4105 5.12092 57.1126 4.40167 56.5717 3.86055L53.6525 0.941291C53.1116 0.400415 52.3921 0.102539 51.6271 0.102539C50.8621 0.102539 50.1427 0.400415 49.6017 0.941291L47.076 3.46705L44.024 6.51905L37.4861 13.0569H8.32752V3.7638C8.32752 3.24492 7.90689 2.82442 7.38814 2.82442C3.31438 2.82467 0 6.1388 0 10.2128V50.1111C0 50.1805 0.00800002 50.248 0.02225 50.313C0.152 52.0416 0.899877 53.6478 2.14975 54.867C3.48576 56.17 5.24939 56.8877 7.11589 56.8877H35.8207L30.4146 62.2938C30.1459 62.5625 30.0656 62.9665 30.2109 63.3175C30.3563 63.6687 30.6989 63.8974 31.0788 63.8974H63.0608C63.5795 63.8974 64.0001 63.4769 64.0001 62.958V30.9764C64.0001 30.5965 63.7711 30.2538 63.4203 30.1085ZM47.7403 5.45993L52.0535 9.77293L50.3299 11.4966L46.017 7.18355L47.7403 5.45993ZM50.9305 2.26992C51.3145 1.88567 51.9401 1.88567 52.3241 2.26992L55.2435 5.1893C55.6277 5.57343 55.6277 6.1988 55.2435 6.58305L53.3821 8.44456L49.0688 4.13142L50.9305 2.26992ZM33.3466 62.0188L38.7511 56.6143C38.7517 56.6137 38.7523 56.6132 38.753 56.6127L41.1553 54.2101L42.835 52.5305C43.2018 52.1635 43.2018 51.5689 42.835 51.202C42.7928 51.1599 42.7476 51.1234 42.7002 51.0909C42.3345 50.8404 41.8312 50.8773 41.5063 51.202L37.6993 55.009H7.11601C4.26713 55.009 1.9735 52.7848 1.88325 49.9409C1.88863 49.7624 1.9025 49.5854 1.92475 49.4104C1.92488 49.4094 1.925 49.4084 1.92513 49.4074C1.93563 49.3243 1.94825 49.2415 1.96263 49.1593C1.96425 49.1499 1.966 49.1405 1.96763 49.1311C1.98075 49.0578 1.9955 48.9848 2.01163 48.912C2.01613 48.8918 2.02088 48.8715 2.02563 48.8514C2.03988 48.7899 2.05525 48.7288 2.07175 48.6679C2.08075 48.635 2.09013 48.6023 2.09975 48.5694C2.1135 48.5216 2.12775 48.4741 2.14288 48.4269C2.158 48.3798 2.174 48.3331 2.1905 48.2865C2.20188 48.254 2.21313 48.2213 2.22538 48.189C2.24825 48.1275 2.2725 48.0666 2.2975 48.0063C2.30463 47.9889 2.31163 47.9713 2.319 47.9539C2.35113 47.8789 2.3845 47.8048 2.41975 47.7315C2.42125 47.7284 2.42263 47.7253 2.42413 47.7221C3.15876 46.2016 4.57201 45.068 6.26789 44.7163C6.27264 44.7153 6.27739 44.7141 6.28214 44.7131C6.35989 44.6973 6.43839 44.6836 6.51739 44.671C6.53051 44.6689 6.54364 44.6663 6.55701 44.6643C6.62839 44.6534 6.70051 44.6449 6.77264 44.6368C6.79289 44.6345 6.81301 44.6314 6.83339 44.6294C6.90301 44.6224 6.97326 44.6178 7.04351 44.6134C7.06576 44.612 7.08801 44.6096 7.11026 44.6085C7.20226 44.6039 7.29501 44.6015 7.38814 44.6015C7.90689 44.6015 8.32752 44.181 8.32752 43.6621V36.851C8.32752 36.3321 7.90689 35.9116 7.38814 35.9116C6.86939 35.9116 6.44876 36.3321 6.44876 36.851V42.7819C4.86251 42.9825 3.39013 43.69 2.22913 44.8238C2.107 44.943 1.99125 45.067 1.87863 45.193V10.2128C1.87863 7.49518 3.85688 5.23055 6.44876 4.7833V13.9964V33.0936V33.0937C6.44876 33.6125 6.86939 34.0331 7.38814 34.0331C7.90689 34.0331 8.32752 33.6125 8.32752 33.0937V33.0936V14.9358H35.6076L30.4146 20.1288C30.0477 20.4958 30.0477 21.0905 30.4146 21.4573C30.7814 21.8241 31.3762 21.8241 31.7429 21.4573L38.5396 14.6607C38.5398 14.6604 38.54 14.6602 38.5402 14.6601L44.6883 8.51193L49.0012 12.8251L48.4952 13.3311C48.4948 13.3314 48.4943 13.3318 48.494 13.3322L29.5529 32.2735L25.2399 27.9605L28.9734 24.227C29.3403 23.86 29.3403 23.2653 28.9734 22.8985C28.6066 22.5317 28.0118 22.5317 27.6451 22.8985L23.2472 27.2962C23.2237 27.3197 23.2017 27.3446 23.181 27.3701C23.1742 27.3786 23.168 27.3877 23.1615 27.3966C23.1483 27.4142 23.1353 27.432 23.1232 27.4505C23.1163 27.4612 23.11 27.4722 23.1035 27.4832C23.0932 27.5007 23.0832 27.5185 23.074 27.5366C23.068 27.5483 23.0627 27.5602 23.0572 27.5725C23.0488 27.5908 23.041 27.6096 23.0339 27.6283C23.0314 27.635 23.0282 27.6412 23.0258 27.6478L21.1957 32.8322L19.9479 36.3671C19.9314 36.4141 19.9195 36.4619 19.9107 36.51H16.7867C16.2679 36.51 15.8473 36.9305 15.8473 37.4494C15.8473 37.9682 16.2679 38.3887 16.7867 38.3887H42.801C43.3198 38.3887 43.7403 37.9682 43.7403 37.4494C43.7403 36.9305 43.3198 36.51 42.801 36.51H24.1367L29.8654 34.4877C29.8702 34.486 29.8747 34.4836 29.8794 34.4819C29.9017 34.4736 29.9236 34.4644 29.9452 34.4545C29.9538 34.4505 29.9624 34.4467 29.9708 34.4426C29.9933 34.4314 30.0154 34.419 30.0372 34.4057C30.0442 34.4015 30.0514 34.3976 30.0583 34.3932C30.0809 34.3787 30.1029 34.3629 30.1246 34.3461C30.1299 34.342 30.1356 34.3384 30.1408 34.3341C30.1669 34.3131 30.1926 34.2905 30.2168 34.2662L49.5473 14.9358H57.7042V35.0041L44.2672 48.4414C43.9003 48.8084 43.9003 49.403 44.2672 49.7699C44.2901 49.7928 44.314 49.8143 44.3386 49.8344C44.5108 49.9748 44.7212 50.045 44.9315 50.045C45.1417 50.045 45.3522 49.9748 45.5243 49.8344C45.549 49.8144 45.5728 49.7928 45.5957 49.7699L59.308 36.0576C59.3084 36.0572 59.3086 36.0569 59.309 36.0565L62.1214 33.2441V41.5317H60.3882C59.8694 41.5317 59.4489 41.9522 59.4489 42.4711C59.4489 42.99 59.8694 43.4105 60.3882 43.4105H62.1214V46.2413H60.3882C59.8694 46.2413 59.4489 46.6618 59.4489 47.1806C59.4489 47.6995 59.8694 48.12 60.3882 48.12H62.1214V50.9506H60.3882C59.8694 50.9506 59.4489 51.3711 59.4489 51.89C59.4489 52.4089 59.8694 52.8294 60.3882 52.8294H62.1214V55.6602H60.3882C59.8694 55.6602 59.4489 56.0808 59.4489 56.5995C59.4489 57.1184 59.8694 57.5389 60.3882 57.5389H62.1214V62.0192L33.3466 62.0188ZM25.1439 34.162L23.3512 32.3692L24.3011 29.6785L27.8347 33.2121L25.1439 34.162Z" fill="#333333"/>
</g>
<defs>
<clipPath id="clip0">
<rect width="64" height="64" fill="white"/>
</clipPath>
</defs>
</svg>
