<svg width="24" height="24" viewBox="0 0 24 24" fill="none" xmlns="http://www.w3.org/2000/svg">
<path d="M20.75 0H3.25C2.38805 0 1.5614 0.34241 0.951903 0.951903C0.34241 1.5614 0 2.38805 0 3.25V20.75C0 21.612 0.34241 22.4386 0.951903 23.0481C1.5614 23.6576 2.38805 24 3.25 24H20.75C21.612 24 22.4386 23.6576 23.0481 23.0481C23.6576 22.4386 24 21.612 24 20.75V3.25C24 2.38805 23.6576 1.5614 23.0481 0.951903C22.4386 0.34241 21.612 0 20.75 0ZM11.25 22.5H3.25C2.78587 22.5 2.34075 22.3156 2.01256 21.9874C1.68437 21.6592 1.5 21.2141 1.5 20.75V12.75H11.25V22.5ZM11.25 11.25H1.5V3.25C1.5 2.78587 1.68437 2.34075 2.01256 2.01256C2.34075 1.68437 2.78587 1.5 3.25 1.5H11.25V11.25ZM22.5 20.75C22.5 21.2141 22.3156 21.6592 21.9874 21.9874C21.6592 22.3156 21.2141 22.5 20.75 22.5H12.75V12.75H22.5V20.75ZM22.5 11.25H12.75V1.5H20.75C21.2141 1.5 21.6592 1.68437 21.9874 2.01256C22.3156 2.34075 22.5 2.78587 22.5 3.25V11.25Z" fill="white"/>
<path d="M4.125 7.125H5.625V8.625C5.625 8.82391 5.70402 9.01468 5.84467 9.15533C5.98532 9.29598 6.17609 9.375 6.375 9.375C6.57391 9.375 6.76468 9.29598 6.90533 9.15533C7.04598 9.01468 7.125 8.82391 7.125 8.625V7.125H8.625C8.82391 7.125 9.01468 7.04598 9.15533 6.90533C9.29598 6.76468 9.375 6.57391 9.375 6.375C9.375 6.17609 9.29598 5.98532 9.15533 5.84467C9.01468 5.70402 8.82391 5.625 8.625 5.625H7.125V4.125C7.125 3.92609 7.04598 3.73532 6.90533 3.59467C6.76468 3.45402 6.57391 3.375 6.375 3.375C6.17609 3.375 5.98532 3.45402 5.84467 3.59467C5.70402 3.73532 5.625 3.92609 5.625 4.125V5.625H4.125C3.92609 5.625 3.73532 5.70402 3.59467 5.84467C3.45402 5.98532 3.375 6.17609 3.375 6.375C3.375 6.57391 3.45402 6.76468 3.59467 6.90533C3.73532 7.04598 3.92609 7.125 4.125 7.125Z" fill="white"/>
<path d="M15.5002 19.75C15.5698 19.8199 15.6526 19.8754 15.7438 19.9132C15.835 19.9511 15.9327 19.9706 16.0314 19.9706C16.1301 19.9706 16.2279 19.9511 16.319 19.9132C16.4102 19.8754 16.493 19.8199 16.5627 19.75L17.6227 18.6875L18.6852 19.75C18.8264 19.8912 19.0179 19.9706 19.2177 19.9706C19.4174 19.9706 19.6089 19.8912 19.7502 19.75C19.8914 19.6088 19.9707 19.4172 19.9707 19.2175C19.9707 19.0178 19.8914 18.8262 19.7502 18.685L18.6852 17.625L19.7502 16.565C19.8914 16.4238 19.9707 16.2322 19.9707 16.0325C19.9707 15.8328 19.8914 15.6412 19.7502 15.5C19.6089 15.3588 19.4174 15.2794 19.2177 15.2794C19.0179 15.2794 18.8264 15.3588 18.6852 15.5L17.6252 16.565L16.5652 15.5C16.4952 15.4301 16.4122 15.3746 16.3209 15.3367C16.2295 15.2989 16.1316 15.2794 16.0327 15.2794C15.9338 15.2794 15.8358 15.2989 15.7445 15.3367C15.6531 15.3746 15.5701 15.4301 15.5002 15.5C15.4302 15.5699 15.3748 15.6529 15.3369 15.7443C15.2991 15.8357 15.2796 15.9336 15.2796 16.0325C15.2796 16.1314 15.2991 16.2293 15.3369 16.3207C15.3748 16.412 15.4302 16.4951 15.5002 16.565L16.5627 17.625L15.5002 18.685C15.4299 18.7547 15.3741 18.8377 15.336 18.9291C15.2979 19.0205 15.2783 19.1185 15.2783 19.2175C15.2783 19.3165 15.2979 19.4145 15.336 19.5059C15.3741 19.5973 15.4299 19.6803 15.5002 19.75Z" fill="white"/>
<path d="M19.875 5.625H15.375C15.1761 5.625 14.9853 5.70402 14.8447 5.84467C14.704 5.98532 14.625 6.17609 14.625 6.375C14.625 6.57391 14.704 6.76468 14.8447 6.90533C14.9853 7.04598 15.1761 7.125 15.375 7.125H19.875C20.0739 7.125 20.2647 7.04598 20.4053 6.90533C20.546 6.76468 20.625 6.57391 20.625 6.375C20.625 6.17609 20.546 5.98532 20.4053 5.84467C20.2647 5.70402 20.0739 5.625 19.875 5.625Z" fill="white"/>
<path d="M4.125 19.7825H8.625C8.82391 19.7825 9.01468 19.7035 9.15533 19.5628C9.29598 19.4221 9.375 19.2314 9.375 19.0325C9.375 18.8336 9.29598 18.6428 9.15533 18.5021C9.01468 18.3615 8.82391 18.2825 8.625 18.2825H4.125C3.92609 18.2825 3.73532 18.3615 3.59467 18.5021C3.45402 18.6428 3.375 18.8336 3.375 19.0325C3.375 19.2314 3.45402 19.4221 3.59467 19.5628C3.73532 19.7035 3.92609 19.7825 4.125 19.7825Z" fill="white"/>
<path d="M4.125 16.97H8.625C8.82391 16.97 9.01468 16.891 9.15533 16.7503C9.29598 16.6097 9.375 16.4189 9.375 16.22C9.375 16.0211 9.29598 15.8303 9.15533 15.6897C9.01468 15.549 8.82391 15.47 8.625 15.47H4.125C3.92609 15.47 3.73532 15.549 3.59467 15.6897C3.45402 15.8303 3.375 16.0211 3.375 16.22C3.375 16.4189 3.45402 16.6097 3.59467 16.7503C3.73532 16.891 3.92609 16.97 4.125 16.97Z" fill="white"/>
</svg>
