<svg width="24" height="25" viewBox="0 0 24 25" fill="none" xmlns="http://www.w3.org/2000/svg">
<g clip-path="url(#clip0)">
<path d="M18.0712 8.63037L14.7709 4.45735C14.2092 3.75014 13.3966 3.28369 12.5038 3.15328V1.00157C12.5038 0.725704 12.2781 0.5 12.0023 0.5C11.7264 0.5 11.5007 0.725704 11.5007 1.00157V3.15328C10.6079 3.27867 9.79539 3.74513 9.23866 4.45735L5.92833 8.63539C5.64243 9.00153 5.48193 9.45294 5.48193 9.9194V22.4535C5.48695 23.5871 6.40983 24.5049 7.54337 24.4999C7.54838 24.4999 7.54838 24.4999 7.5534 24.4999H16.4462C17.5797 24.5099 18.5076 23.5971 18.5176 22.4635C18.5176 22.4585 18.5176 22.4585 18.5176 22.4535V9.9194C18.5176 9.45294 18.3571 9.00153 18.0712 8.63037ZM12.0023 8.04354C12.8098 8.04354 13.4618 8.69558 13.4618 9.5031C13.4618 10.3106 12.8098 10.9627 12.0023 10.9627C11.1948 10.9627 10.5427 10.3106 10.5427 9.5031C10.5427 8.70059 11.1948 8.04354 12.0023 8.04354ZM17.5195 22.4535C17.5195 23.0403 17.038 23.4968 16.4512 23.4968H7.5534C6.96657 23.4968 6.48506 23.0403 6.48506 22.4535V9.9194C6.48506 9.67865 6.56531 9.44291 6.71578 9.25733L10.0211 5.07929C10.3923 4.61284 10.9139 4.28682 11.5007 4.17146V7.09057C10.1666 7.36643 9.31389 8.6705 9.58975 10.0047C9.86561 11.3388 11.1697 12.1915 12.5038 11.9156C13.838 11.6398 14.6907 10.3357 14.4148 9.00153C14.2142 8.04354 13.4669 7.29119 12.5038 7.09057V4.17146C12.7095 4.21158 12.9101 4.2818 13.1007 4.37208C13.4418 4.5376 13.7427 4.77835 13.9784 5.07929L17.2888 9.25231C17.4392 9.44291 17.5195 9.67865 17.5195 9.9194V22.4535Z" fill="#333333"/>
<path d="M13.6029 18.792C13.3822 18.0949 12.7352 17.6184 12.0029 17.6184C11.6317 17.6184 11.3308 17.3174 11.3308 16.9463C11.3308 16.5751 11.6317 16.2742 12.0029 16.2742C12.374 16.2742 12.675 16.5751 12.675 16.9463C12.675 17.2221 12.9007 17.4478 13.1765 17.4478C13.4524 17.4478 13.6781 17.2221 13.6781 16.9463C13.6781 16.214 13.2016 15.567 12.5044 15.3463V15.1256C12.5044 14.8497 12.2787 14.624 12.0029 14.624C11.727 14.624 11.5013 14.8497 11.5013 15.1256V15.3463C10.6186 15.6221 10.127 16.5651 10.4029 17.4478C10.6236 18.145 11.2706 18.6215 12.0029 18.6215C12.374 18.6215 12.675 18.9224 12.675 19.2936C12.675 19.6648 12.374 19.9657 12.0029 19.9657C11.6317 19.9657 11.3308 19.6648 11.3308 19.2936C11.3308 19.0177 11.1051 18.792 10.8292 18.792C10.5534 18.792 10.3277 19.0177 10.3277 19.2936C10.3277 20.0259 10.8041 20.6729 11.5013 20.8936V21.1444C11.5013 21.4202 11.727 21.6459 12.0029 21.6459C12.2787 21.6459 12.5044 21.4202 12.5044 21.1444V20.8936C13.3872 20.6177 13.8787 19.6748 13.6029 18.792Z" fill="#333333"/>
</g>
<defs>
<clipPath id="clip0">
<rect width="24" height="24" fill="white" transform="translate(0 0.5)"/>
</clipPath>
</defs>
</svg>
