<svg width="26" height="22" viewBox="0 0 26 22" fill="none" xmlns="http://www.w3.org/2000/svg">
<path d="M9.22676 0.814521L9.1915 0.668863C9.98486 0.476771 10.7915 0.373068 11.5943 0.353428L9.22676 0.814521ZM9.22676 0.814521L9.19149 0.668864C3.29596 2.0965 -0.298506 7.89785 1.18357 13.5982C2.66516 19.2968 8.66885 22.7556 14.5623 21.3285C20.4551 19.9016 24.0492 14.1132 22.5722 8.41522C22.5519 8.28428 22.5039 8.15903 22.4314 8.04728C22.3573 7.93316 22.2594 7.83577 22.1443 7.76122C22.0292 7.68668 21.8995 7.63658 21.7635 7.6139C21.6276 7.59122 21.4882 7.59643 21.3545 7.62923C21.2207 7.66204 21.0952 7.72176 20.9864 7.80478L21.0773 7.92405L20.9864 7.80478C20.8775 7.88782 20.7876 7.99236 20.7228 8.11184C20.658 8.23133 20.6199 8.36292 20.6112 8.49804C20.6027 8.63014 20.6225 8.7624 20.6693 8.88648C21.8813 13.5665 18.9433 18.2949 14.082 19.4721C9.21629 20.6504 4.30469 17.8122 3.08665 13.1273C1.86916 8.4445 4.80786 3.70308 9.67182 2.52529L9.63652 2.3795M9.22676 0.814521L9.63652 2.3795M9.63652 2.3795L9.67182 2.52529C12.2782 1.89411 15.0358 2.41094 17.2067 3.93647C17.308 4.0234 17.4263 4.08908 17.5544 4.12967C17.6851 4.17109 17.8232 4.18554 17.9599 4.17217C18.0966 4.15879 18.2291 4.11784 18.3488 4.05179C18.4685 3.98573 18.5729 3.89594 18.655 3.7879C18.7372 3.67986 18.7952 3.55604 18.8249 3.4244C18.8547 3.29274 18.8554 3.15647 18.8272 3.02449C18.799 2.89253 18.7424 2.76809 18.6615 2.65916C18.5821 2.55227 18.481 2.46272 18.3648 2.39578C16.3833 1.00276 14.0005 0.294236 11.5943 0.353428L9.63652 2.3795ZM24.1082 0.875211L24.1075 0.87525C23.8541 0.890083 23.6154 0.999222 23.442 1.18129C21.8758 2.76275 19.7925 4.93722 17.7168 7.10376C15.9069 8.99283 14.1028 10.8759 12.6523 12.3545L8.62706 8.92882C8.62699 8.92876 8.62692 8.9287 8.62685 8.92864C8.52961 8.84527 8.4166 8.78141 8.29436 8.74048C8.17204 8.69953 8.0427 8.68225 7.91366 8.68958C7.78461 8.69691 7.65817 8.72871 7.54153 8.78328C7.42487 8.83787 7.32014 8.91427 7.23348 9.00835C7.14682 9.10244 7.07994 9.21237 7.03693 9.33201C6.99392 9.45165 6.9757 9.57846 6.98342 9.70512C6.99114 9.83177 7.02463 9.95554 7.0818 10.0693C7.13895 10.1831 7.21859 10.2845 7.31589 10.368L7.31631 10.3684L12.058 14.4061C12.0581 14.4062 12.0582 14.4063 12.0583 14.4064C12.2489 14.5702 12.4967 14.6558 12.7498 14.6466C13.0031 14.6375 13.2439 14.534 13.4214 14.3564L13.4219 14.3559C14.9819 12.7807 17.072 10.596 19.1561 8.4174L19.1747 8.39792C21.2527 6.22573 23.3231 4.06139 24.8579 2.51165C24.9996 2.37536 25.0958 2.20014 25.1329 2.00875C25.1702 1.81667 25.146 1.61828 25.0639 1.44017C24.9818 1.26215 24.8459 1.11333 24.6753 1.01278C24.5046 0.912266 24.3069 0.864483 24.1082 0.875211Z" fill="#F2C94C" stroke="#F2C94C" stroke-width="0.3"/>
</svg>
