<svg width="122" height="68" viewBox="0 0 122 68" fill="none" xmlns="http://www.w3.org/2000/svg">
<g clip-path="url(#clip0)">
<rect width="68" height="68" rx="34" fill="#F2C94C"/>
<g clip-path="url(#clip1)">
<path d="M41.7501 36.1124H38.8789V52.4995L49.6771 46.0674V15.414H18.814V31.7069L27.1982 25.7184L33.2839 30.0617V28.3162H36.1612V32.114L41.7501 36.1124Z" fill="#333333"/>
<path d="M32.0621 38.7101H26.8135V40.2293H32.0621V38.7101Z" fill="#333333"/>
<path d="M32.0621 40.7823H26.8135V44.6485H32.0621V40.7823Z" fill="#333333"/>
</g>
<path d="M83.0605 38.3594V15.9532H88.248C89.9876 15.9532 91.2949 16.4271 92.1699 17.375C93.0553 18.323 93.498 19.698 93.498 21.5V24.4063C93.498 26.2084 93.0553 27.5834 92.1699 28.5313C91.2949 29.4688 89.9876 29.9375 88.248 29.9375H86.5762V38.3594H83.0605ZM86.5762 26.75H88.248C88.8314 26.75 89.2637 26.5886 89.5449 26.2657C89.8262 25.9427 89.9668 25.3959 89.9668 24.625V21.2657C89.9668 20.4948 89.8262 19.9532 89.5449 19.6407C89.2637 19.3177 88.8314 19.1563 88.248 19.1563H86.5762V26.75ZM95.123 38.3594V15.9532H100.436C102.238 15.9532 103.555 16.375 104.389 17.2188C105.232 18.0625 105.654 19.3594 105.654 21.1094V21.9063C105.654 24.198 104.894 25.7032 103.373 26.4219C105.123 27.099 105.998 28.698 105.998 31.2188V33.0469C105.998 34.7761 105.545 36.0938 104.639 37C103.732 37.9063 102.404 38.3594 100.654 38.3594H95.123ZM98.6387 35.1563H100.654C101.269 35.1563 101.727 34.9896 102.029 34.6563C102.331 34.323 102.482 33.7552 102.482 32.9532V31C102.482 29.9792 102.305 29.2709 101.951 28.875C101.607 28.4792 101.029 28.2813 100.217 28.2813H98.6387V35.1563ZM98.6387 25.0782H100.014C100.712 25.0782 101.238 24.9011 101.592 24.5469C101.946 24.1823 102.123 23.573 102.123 22.7188V21.4688C102.123 20.6667 101.982 20.0834 101.701 19.7188C101.42 19.3438 100.967 19.1563 100.342 19.1563H98.6387V25.0782ZM107.092 19.1563V15.9532H117.982V19.1563H114.295V38.3594H110.779V19.1563H107.092ZM80.9818 41.9419L83.7337 48.81L86.4855 41.9419H87.9251V50.3594H86.8151V47.0814L86.9191 43.5433L84.1557 50.3594H83.3058L80.5482 43.5607L80.658 47.0814V50.3594H79.548V41.9419H80.9818ZM89.434 47.1739C89.434 46.5611 89.5535 46.01 89.7924 45.5205C90.0352 45.031 90.3705 44.6533 90.7983 44.3874C91.23 44.1214 91.7214 43.9885 92.2726 43.9885C93.1243 43.9885 93.8123 44.2833 94.3365 44.873C94.8645 45.4627 95.1285 46.247 95.1285 47.226V47.3011C95.1285 47.9101 95.011 48.4574 94.7758 48.943C94.5446 49.4248 94.2112 49.8006 93.7757 50.0703C93.344 50.3401 92.8468 50.475 92.2841 50.475C91.4362 50.475 90.7482 50.1802 90.2202 49.5905C89.6961 49.0008 89.434 48.2203 89.434 47.2491V47.1739ZM90.5093 47.3011C90.5093 47.9949 90.6692 48.5518 90.9891 48.9719C91.3129 49.392 91.7445 49.6021 92.2841 49.6021C92.8276 49.6021 93.2592 49.3901 93.5791 48.9661C93.899 48.5383 94.059 47.9409 94.059 47.1739C94.059 46.4879 93.8952 45.9329 93.5676 45.5089C93.2438 45.0811 92.8121 44.8672 92.2726 44.8672C91.7445 44.8672 91.3187 45.0773 90.9949 45.4974C90.6712 45.9175 90.5093 46.5187 90.5093 47.3011ZM98.9788 49.6021C99.3604 49.6021 99.6938 49.4864 99.979 49.2552C100.264 49.0239 100.422 48.7349 100.453 48.388H101.465C101.445 48.7464 101.322 49.0875 101.095 49.4113C100.867 49.735 100.563 49.9933 100.181 50.186C99.8036 50.3787 99.4028 50.475 98.9788 50.475C98.127 50.475 97.4487 50.1918 96.9438 49.6252C96.4428 49.0548 96.1923 48.2762 96.1923 47.2896V47.1103C96.1923 46.5014 96.304 45.9599 96.5276 45.4858C96.7511 45.0118 97.071 44.6437 97.4873 44.3816C97.9074 44.1195 98.4026 43.9885 98.973 43.9885C99.6745 43.9885 100.256 44.1985 100.719 44.6186C101.185 45.0387 101.434 45.5841 101.465 46.2547H100.453C100.422 45.85 100.268 45.5186 99.9905 45.2603C99.7169 44.9983 99.3777 44.8672 98.973 44.8672C98.4296 44.8672 98.0076 45.0638 97.7069 45.4569C97.4102 45.8462 97.2618 46.4108 97.2618 47.1508V47.3532C97.2618 48.0739 97.4102 48.6289 97.7069 49.0182C98.0037 49.4074 98.4277 49.6021 98.9788 49.6021ZM104.616 47.6943H103.835V50.3594H102.76V44.1041H103.835V46.7519H104.535L106.639 44.1041H107.934L105.46 47.1103L108.142 50.3594H106.784L104.616 47.6943ZM109.16 50.3594V44.1041H111.599C112.432 44.1041 113.07 44.2506 113.513 44.5435C113.96 44.8325 114.184 45.2584 114.184 45.8211C114.184 46.1102 114.097 46.3723 113.923 46.6074C113.75 46.8386 113.494 47.0159 113.154 47.1393C113.532 47.2279 113.835 47.4013 114.062 47.6596C114.293 47.9178 114.409 48.2261 114.409 48.5846C114.409 49.1588 114.197 49.5982 113.773 49.9027C113.353 50.2072 112.757 50.3594 111.987 50.3594H109.16ZM110.229 47.6133V49.498H111.998C112.445 49.498 112.779 49.4151 112.998 49.2494C113.222 49.0837 113.334 48.8505 113.334 48.5499C113.334 47.9255 112.875 47.6133 111.958 47.6133H110.229ZM110.229 46.7577H111.611C112.613 46.7577 113.114 46.4648 113.114 45.8789C113.114 45.2931 112.64 44.9906 111.692 44.9713H110.229V46.7577ZM119.687 50.3594C119.626 50.2361 119.575 50.0164 119.537 49.7003C119.04 50.2168 118.446 50.475 117.756 50.475C117.14 50.475 116.633 50.3016 116.236 49.9547C115.843 49.604 115.646 49.1608 115.646 48.625C115.646 47.9737 115.893 47.4688 116.386 47.1103C116.883 46.7481 117.581 46.5669 118.479 46.5669H119.52V46.0755C119.52 45.7016 119.408 45.4049 119.184 45.1852C118.961 44.9616 118.631 44.8499 118.196 44.8499C117.814 44.8499 117.494 44.9462 117.236 45.1389C116.978 45.3316 116.849 45.5648 116.849 45.8385H115.773C115.773 45.5263 115.883 45.2257 116.103 44.9366C116.326 44.6437 116.627 44.4124 117.005 44.2428C117.386 44.0733 117.804 43.9885 118.259 43.9885C118.98 43.9885 119.545 44.1696 119.953 44.5319C120.362 44.8903 120.574 45.3856 120.589 46.0177V48.8968C120.589 49.471 120.662 49.9277 120.809 50.2669V50.3594H119.687ZM117.912 49.5443C118.248 49.5443 118.566 49.4575 118.866 49.2841C119.167 49.1107 119.385 48.8852 119.52 48.6077V47.3243H118.681C117.371 47.3243 116.716 47.7077 116.716 48.4747C116.716 48.81 116.827 49.0721 117.051 49.261C117.275 49.4498 117.562 49.5443 117.912 49.5443Z" fill="white"/>
</g>
<defs>
<clipPath id="clip0">
<rect width="121.947" height="68" fill="white"/>
</clipPath>
<clipPath id="clip1">
<rect width="31.091" height="37.4" fill="white" transform="translate(18.7002 15.3)"/>
</clipPath>
</defs>
</svg>
