<svg width="23" height="23" viewBox="0 0 23 23" fill="none" xmlns="http://www.w3.org/2000/svg">
<path d="M7.09042 9.04423L8.36042 7.77423C8.62928 7.50234 8.81457 7.15908 8.89433 6.78511C8.97408 6.41114 8.94497 6.02215 8.81042 5.66423C8.47187 4.75696 8.23704 3.8143 8.11042 2.85423C8.0425 2.37368 7.80215 1.93422 7.43418 1.61776C7.06621 1.30131 6.59573 1.12945 6.11042 1.13423H3.11042C2.83276 1.13449 2.5582 1.19256 2.30421 1.30475C2.05023 1.41694 1.82238 1.58078 1.63519 1.78585C1.44799 1.99092 1.30555 2.23272 1.21692 2.49585C1.1283 2.75899 1.09543 3.0377 1.12042 3.31423C1.44866 6.40522 2.5004 9.37543 4.19042 11.9842C5.72576 14.4004 7.77425 16.4489 10.1904 17.9842C12.7874 19.6684 15.7433 20.7199 18.8204 21.0542C19.0978 21.0793 19.3773 21.0462 19.6412 20.9569C19.905 20.8677 20.1473 20.7244 20.3525 20.5361C20.5577 20.3478 20.7214 20.1188 20.8329 19.8636C20.9445 19.6084 21.0016 19.3327 21.0004 19.0542V16.0542C21.0126 15.5638 20.8441 15.086 20.527 14.7117C20.2098 14.3374 19.7662 14.0928 19.2804 14.0242C18.3204 13.8976 17.3777 13.6628 16.4704 13.3242C16.1125 13.1897 15.7235 13.1606 15.3495 13.2403C14.9756 13.3201 14.6323 13.5054 14.3604 13.7742L13.0904 15.0442" stroke="#333333" stroke-width="2.02237" stroke-linecap="round" stroke-linejoin="round"/>
</svg>
