<svg width="22" height="22" viewBox="0 0 22 22" fill="none" xmlns="http://www.w3.org/2000/svg">
<path d="M7.08993 8.91L8.35993 7.64C8.6288 7.36811 8.81408 7.02485 8.89384 6.65088C8.9736 6.27692 8.94448 5.88793 8.80993 5.53C8.47138 4.62273 8.23656 3.68007 8.10993 2.72C8.04201 2.23945 7.80166 1.79999 7.43369 1.48353C7.06572 1.16708 6.59524 0.995225 6.10993 1H3.10993C2.83227 1.00026 2.55771 1.05834 2.30372 1.17052C2.04974 1.28271 1.82189 1.44655 1.6347 1.65162C1.4475 1.85669 1.30506 2.09849 1.21643 2.36163C1.12781 2.62476 1.09494 2.90347 1.11993 3.18C1.44818 6.271 2.49991 9.24121 4.18993 11.85C5.72527 14.2662 7.77376 16.3147 10.1899 17.85C12.7869 19.5341 15.7428 20.5856 18.8199 20.92C19.0973 20.9451 19.3769 20.9119 19.6407 20.8227C19.9045 20.7335 20.1468 20.5901 20.352 20.4019C20.5572 20.2136 20.7209 19.9845 20.8324 19.7293C20.944 19.4742 21.0011 19.1985 20.9999 18.92V15.92C21.0121 15.4296 20.8436 14.9518 20.5265 14.5775C20.2093 14.2032 19.7657 13.9585 19.2799 13.89C18.3199 13.7634 17.3772 13.5286 16.4699 13.19C16.112 13.0555 15.723 13.0263 15.3491 13.1061C14.9751 13.1859 14.6318 13.3711 14.3599 13.64L13.0899 14.91" stroke="white" stroke-width="2" stroke-linecap="round" stroke-linejoin="round"/>
</svg>
