<svg width="24" height="25" viewBox="0 0 24 25" fill="none" xmlns="http://www.w3.org/2000/svg">
<g clip-path="url(#clip0)">
<path d="M23.4725 11.976C23.4712 5.63666 18.3311 0.498718 11.9916 0.5C5.65228 0.501282 0.514343 5.6416 0.515625 11.9809C0.516724 16.9744 3.74579 21.3942 8.50269 22.913C8.5481 22.9273 8.59534 22.9346 8.64276 22.9344C8.73322 22.9343 8.82184 22.9101 8.89966 22.8641C9.00092 22.8043 9.07654 22.709 9.11206 22.5968L12.0108 13.4093C12.8033 13.4053 13.4423 12.7595 13.4381 11.9672C13.4341 11.1747 12.7885 10.5356 11.996 10.5397C11.7828 10.5406 11.5724 10.5897 11.3809 10.6832L7.55145 6.85321C7.36139 6.66974 7.05872 6.67505 6.87524 6.86493C6.69617 7.05042 6.69617 7.34412 6.87524 7.5296L10.7027 11.3615C10.409 11.9609 10.5769 12.6846 11.105 13.0933L8.34302 21.8479C2.88464 19.8372 0.0897219 13.7825 2.1004 8.3241C4.11108 2.86572 10.1658 0.070801 15.6242 2.08148C21.0826 4.09216 23.8775 10.1471 21.8668 15.6053C20.8845 18.272 18.8661 20.4286 16.2702 21.5853L15.9717 20.1796C15.9172 19.9213 15.6632 19.7561 15.4048 19.8109C15.3234 19.8282 15.2477 19.8665 15.1855 19.922L12.3078 22.4911C12.1104 22.6667 12.0928 22.9691 12.2686 23.1664C12.3257 23.2305 12.399 23.2781 12.481 23.3043L16.155 24.4769C16.4064 24.5577 16.6758 24.4194 16.7565 24.1678C16.7822 24.0884 16.7864 24.0038 16.7692 23.9221L16.4758 22.5428C20.7241 20.7518 23.4824 16.5862 23.4725 11.976ZM11.9941 11.4977C12.2582 11.4977 12.4724 11.7119 12.4724 11.976C12.4724 12.2402 12.2582 12.4542 11.9941 12.4542C11.7299 12.4542 11.5159 12.2402 11.5159 11.976C11.5159 11.7119 11.7299 11.4977 11.9941 11.4977ZM13.5694 22.6457L15.2075 21.1845L15.6595 23.3148L13.5694 22.6457Z" fill="#333333"/>
<path d="M11.5156 2.88892V3.84546C11.5156 4.10968 11.7297 4.32373 11.9939 4.32373C12.2579 4.32373 12.4722 4.10968 12.4722 3.84546V2.88892C12.4722 2.62488 12.2579 2.41064 11.9939 2.41064C11.7297 2.41064 11.5156 2.62488 11.5156 2.88892Z" fill="#333333"/>
<path d="M2.90698 11.4976C2.64276 11.4976 2.42871 11.7118 2.42871 11.9758C2.42871 12.2401 2.64276 12.4541 2.90698 12.4541H3.86353C4.12775 12.4541 4.3418 12.2401 4.3418 11.9758C4.3418 11.7118 4.12775 11.4976 3.86353 11.4976H2.90698Z" fill="#333333"/>
<path d="M21.0808 12.4541C21.345 12.4541 21.5591 12.2401 21.5591 11.9758C21.5591 11.7118 21.345 11.4976 21.0808 11.4976H20.1243C19.8602 11.4976 19.646 11.7118 19.646 11.9758C19.646 12.2401 19.8602 12.4541 20.1243 12.4541H21.0808Z" fill="#333333"/>
</g>
<defs>
<clipPath id="clip0">
<rect width="24" height="24" fill="white" transform="translate(0 0.5)"/>
</clipPath>
</defs>
</svg>
