<svg width="40" height="40" viewBox="0 0 40 40" fill="none" xmlns="http://www.w3.org/2000/svg">
<path d="M30.1189 13.5506L24.6184 6.59558C23.6821 5.4169 22.3279 4.63948 20.8399 4.42213V0.835942C20.8399 0.376174 20.4637 0 20.004 0C19.5442 0 19.168 0.376174 19.168 0.835942V4.42213C17.68 4.63112 16.3258 5.40855 15.3979 6.59558L9.88071 13.559C9.40422 14.1692 9.13672 14.9216 9.13672 15.699V36.5892C9.14508 38.4784 10.6832 40.0082 12.5724 39.9998C12.5808 39.9998 12.5808 39.9998 12.5892 39.9998H27.4104C29.2996 40.0165 30.8461 38.4951 30.8629 36.6059C30.8629 36.5975 30.8629 36.5975 30.8629 36.5892V15.699C30.8629 14.9216 30.5954 14.1692 30.1189 13.5506ZM20.004 12.5726C21.3498 12.5726 22.4366 13.6593 22.4366 15.0052C22.4366 16.351 21.3498 17.4378 20.004 17.4378C18.6581 17.4378 17.5714 16.351 17.5714 15.0052C17.5714 13.6677 18.6581 12.5726 20.004 12.5726ZM29.1993 36.5892C29.1993 37.5672 28.3968 38.3279 27.4188 38.3279H12.5892C11.6111 38.3279 10.8086 37.5672 10.8086 36.5892V15.699C10.8086 15.2977 10.9424 14.9048 11.1931 14.5955L16.702 7.63215C17.3206 6.85473 18.19 6.31136 19.168 6.1191V10.9843C16.9444 11.444 15.5233 13.6175 15.9831 15.8411C16.4429 18.0647 18.6163 19.4858 20.8399 19.026C23.0635 18.5663 24.4846 16.3928 24.0248 14.1692C23.6905 12.5726 22.4449 11.3187 20.8399 10.9843V6.1191C21.1826 6.18597 21.517 6.303 21.8347 6.45347C22.4031 6.72933 22.9047 7.13059 23.2976 7.63215L28.8148 14.5872C29.0656 14.9048 29.1993 15.2977 29.1993 15.699V36.5892Z" fill="#E3B424"/>
<path d="M22.6711 30.4867C22.3033 29.3248 21.225 28.5306 20.0045 28.5306C19.3859 28.5306 18.8843 28.029 18.8843 27.4104C18.8843 26.7919 19.3859 26.2903 20.0045 26.2903C20.6231 26.2903 21.1246 26.7919 21.1246 27.4104C21.1246 27.8702 21.5008 28.2464 21.9606 28.2464C22.4204 28.2464 22.7965 27.8702 22.7965 27.4104C22.7965 26.19 22.0024 25.1116 20.8404 24.7438V24.376C20.8404 23.9162 20.4642 23.54 20.0045 23.54C19.5447 23.54 19.1685 23.9162 19.1685 24.376V24.7438C17.6973 25.2036 16.8781 26.7751 17.3378 28.2464C17.7056 29.4084 18.784 30.2025 20.0045 30.2025C20.6231 30.2025 21.1246 30.7041 21.1246 31.3227C21.1246 31.9413 20.6231 32.4428 20.0045 32.4428C19.3859 32.4428 18.8843 31.9413 18.8843 31.3227C18.8843 30.8629 18.5081 30.4867 18.0484 30.4867C17.5886 30.4867 17.2124 30.8629 17.2124 31.3227C17.2124 32.5431 18.0066 33.6215 19.1685 33.9893V34.4073C19.1685 34.8671 19.5447 35.2432 20.0045 35.2432C20.4642 35.2432 20.8404 34.8671 20.8404 34.4073V33.9893C22.3117 33.5295 23.1309 31.958 22.6711 30.4867Z" fill="#E3B424"/>
</svg>
