<svg width="40" height="40" viewBox="0 0 40 40" fill="none" xmlns="http://www.w3.org/2000/svg">
<g clip-path="url(#clip0)">
<path d="M35.3329 3.9H4.66611C4.24253 3.9 3.89951 4.24301 3.89951 4.6666V35.3332C3.89951 35.7568 4.24253 36.0998 4.66611 36.0998H35.3327C35.7563 36.0998 36.0993 35.7568 36.0993 35.3332V4.6666C36.0995 4.24323 35.7565 3.9 35.3329 3.9ZM34.5663 34.5666H5.43291V5.4334H34.5663V34.5666Z" fill="#E3B424" stroke="#E3B424" stroke-width="0.2"/>
<path d="M5.43271 0.66685C5.43294 0.242996 5.08967 -0.1 4.66611 -0.1C4.24253 -0.1 3.89951 0.243014 3.89951 0.666602V2.6666C3.89951 3.09019 4.24253 3.4332 4.66611 3.4332C5.0897 3.4332 5.43271 3.09019 5.43271 2.6666V0.66685ZM5.43271 0.66685L5.33271 0.666797H5.43271V0.66685Z" fill="#E3B424" stroke="#E3B424" stroke-width="0.2"/>
<path d="M2.6666 3.9H0.666602C0.242995 3.9 -0.1 4.24323 -0.1 4.6666C-0.1 5.08997 0.242995 5.4332 0.666602 5.4332H2.6666C3.09019 5.4332 3.4332 5.09019 3.4332 4.6666C3.4332 4.24301 3.09019 3.9 2.6666 3.9Z" fill="#E3B424" stroke="#E3B424" stroke-width="0.2"/>
<path d="M2.6666 34.5667H0.666602C0.243013 34.5667 -0.1 34.9098 -0.1 35.3334C-0.1 35.7569 0.243014 36.1 0.666602 36.1H2.6666C3.09019 36.1 3.4332 35.7569 3.4332 35.3334C3.4332 34.9098 3.09019 34.5667 2.6666 34.5667Z" fill="#E3B424" stroke="#E3B424" stroke-width="0.2"/>
<path d="M5.43271 37.3334C5.43294 36.9099 5.08967 36.5667 4.66611 36.5667C4.24251 36.5667 3.89951 36.91 3.89951 37.3333V39.3333C3.89951 39.7569 4.24253 40.1 4.66611 40.1C5.0897 40.1 5.43271 39.7569 5.43271 39.3333V37.3334ZM5.43271 37.3334L5.33271 37.3333H5.43271V37.3334Z" fill="#E3B424" stroke="#E3B424" stroke-width="0.2"/>
<path d="M35.3331 36.5667C34.9095 36.5667 34.5665 36.91 34.5665 37.3333V39.3333C34.5665 39.7569 34.9095 40.1 35.3331 40.1C35.7567 40.1 36.0997 39.7569 36.0997 39.3333V37.3333C36.0997 36.91 35.7567 36.5667 35.3331 36.5667Z" fill="#E3B424" stroke="#E3B424" stroke-width="0.2"/>
<path d="M39.3331 34.6667H37.3331C36.9647 34.6667 36.6665 34.965 36.6665 35.3334C36.6665 35.7017 36.9649 36 37.3331 36H39.3331C39.7015 36 39.9997 35.7017 39.9997 35.3334C39.9997 34.965 39.7015 34.6667 39.3331 34.6667Z" fill="#E3B424"/>
<path d="M39.3331 3.9H37.3331C36.9095 3.9 36.5665 4.24301 36.5665 4.6666C36.5665 5.09021 36.9097 5.4332 37.3331 5.4332H39.3331C39.7567 5.4332 40.0997 5.09019 40.0997 4.6666C40.0997 4.24301 39.7567 3.9 39.3331 3.9Z" fill="#E3B424" stroke="#E3B424" stroke-width="0.2"/>
<path d="M35.3331 -0.1C34.9095 -0.1 34.5665 0.243014 34.5665 0.666602V2.6666C34.5665 3.09019 34.9095 3.4332 35.3331 3.4332C35.7567 3.4332 36.0997 3.09019 36.0997 2.6666V0.666797C36.0997 0.243033 35.7567 -0.1 35.3331 -0.1Z" fill="#E3B424" stroke="#E3B424" stroke-width="0.2"/>
</g>
<defs>
<clipPath id="clip0">
<rect width="40" height="40" fill="white"/>
</clipPath>
</defs>
</svg>
