<svg width="40" height="40" viewBox="0 0 40 40" fill="none" xmlns="http://www.w3.org/2000/svg">
<g clip-path="url(#clip0)">
<path d="M39.1208 19.1266C39.1187 8.5611 30.5518 -0.00213583 19.986 3.99601e-07C9.42047 0.00213663 0.857239 8.56934 0.859375 19.1348C0.861206 27.4573 6.24298 34.8236 14.1711 37.355C14.2468 37.3788 14.3256 37.3911 14.4046 37.3907C14.5554 37.3904 14.7031 37.3502 14.8328 37.2736C15.0015 37.1738 15.1276 37.0151 15.1868 36.828L20.018 21.5155C21.3388 21.5088 22.4039 20.4324 22.3969 19.1119C22.3901 17.7911 21.3141 16.7261 19.9933 16.7328C19.6381 16.7343 19.2874 16.8161 18.9682 16.972L12.5858 10.5887C12.269 10.2829 11.7645 10.2917 11.4587 10.6082C11.1603 10.9174 11.1603 11.4069 11.4587 11.716L17.8378 18.1024C17.3483 19.1016 17.6282 20.3076 18.5083 20.9888L13.905 35.5798C4.80774 32.2287 0.149536 22.1375 3.50067 13.0402C6.85181 3.94287 16.9431 -0.715332 26.0403 2.6358C35.1376 5.98694 39.7958 16.0785 36.4447 25.1755C34.8074 29.6201 31.4435 33.2144 27.117 35.1422L26.6196 32.7994C26.5286 32.3688 26.1053 32.0935 25.6747 32.1848C25.5389 32.2137 25.4129 32.2775 25.3091 32.37L20.513 36.6519C20.184 36.9446 20.1547 37.4484 20.4477 37.7774C20.5429 37.8842 20.665 37.9636 20.8017 38.0072L26.925 39.9615C27.3441 40.0961 27.793 39.8657 27.9276 39.4464C27.9703 39.314 27.9773 39.173 27.9486 39.0369L27.4597 36.738C34.5401 33.7531 39.1373 26.8103 39.1208 19.1266ZM19.9902 18.3295C20.4303 18.3295 20.7874 18.6865 20.7874 19.1266C20.7874 19.567 20.4303 19.9237 19.9902 19.9237C19.5499 19.9237 19.1931 19.567 19.1931 19.1266C19.1931 18.6865 19.5499 18.3295 19.9902 18.3295ZM22.6157 36.9095L25.3458 34.4742L26.0992 38.0246L22.6157 36.9095Z" fill="#E3B424"/>
<path d="M19.1934 3.98132V5.57556C19.1934 6.01593 19.5501 6.37268 19.9905 6.37268C20.4305 6.37268 20.7876 6.01593 20.7876 5.57556V3.98132C20.7876 3.54126 20.4305 3.1842 19.9905 3.1842C19.5501 3.1842 19.1934 3.54126 19.1934 3.98132Z" fill="#E3B424"/>
<path d="M4.84497 18.3293C4.4046 18.3293 4.04785 18.6864 4.04785 19.1265C4.04785 19.5668 4.4046 19.9236 4.84497 19.9236H6.43921C6.87958 19.9236 7.23633 19.5668 7.23633 19.1265C7.23633 18.6864 6.87958 18.3293 6.43921 18.3293H4.84497Z" fill="#E3B424"/>
<path d="M35.135 19.9236C35.5754 19.9236 35.9321 19.5668 35.9321 19.1265C35.9321 18.6864 35.5754 18.3293 35.135 18.3293H33.5408C33.1007 18.3293 32.7437 18.6864 32.7437 19.1265C32.7437 19.5668 33.1007 19.9236 33.5408 19.9236H35.135Z" fill="#E3B424"/>
</g>
<defs>
<clipPath id="clip0">
<rect width="40" height="40" fill="white"/>
</clipPath>
</defs>
</svg>
